<?xml version="1.0" encoding="UTF-8"?>
<svg version="1.1" xmlns="http://www.w3.org/2000/svg" width="3258" height="3258">
<path d="M0 0 C0.66 0 1.32 0 2 0 C3.38523423 2.03743901 4.63269106 4.06003992 5.859375 6.19140625 C6.24008148 6.83897385 6.62078796 7.48654144 7.01303101 8.1537323 C7.83499687 9.5536114 8.65362071 10.95545694 9.46929932 12.35900879 C11.1911299 15.32147973 12.9288701 18.27449595 14.66592407 21.22805786 C15.54155506 22.71722384 16.41636874 24.2068707 17.29037476 25.69699097 C20.84303199 31.7509531 24.46147543 37.7624321 28.125 43.75 C28.67808838 44.65572754 29.23117676 45.56145508 29.80102539 46.49462891 C30.93701758 48.35429868 32.07349729 50.21367073 33.21044922 52.07275391 C36.54279474 57.52361649 39.86788352 62.97887863 43.1875 68.4375 C43.716353 69.3069223 43.716353 69.3069223 44.25588989 70.19390869 C50.5055897 80.47510599 56.64888217 90.81755863 62.77401733 101.17330933 C68.09795081 110.16988483 73.49440268 119.11304487 79 128 C84.92350056 137.56152087 90.71159322 147.19431725 96.4375 156.875 C102.44661324 167.03299614 108.49050186 177.1671559 114.625 187.25 C114.97265411 187.82155823 115.32030823 188.39311646 115.67849731 188.98199463 C118.1166783 192.98941122 120.55793709 196.99494816 123 201 C125.79385608 205.58200254 128.58621509 210.16490881 131.375 214.75 C131.72158661 215.31975555 132.06817322 215.88951111 132.42526245 216.47653198 C138.65952555 226.73194447 144.7922469 237.04615865 150.90759277 247.37280273 C157.59177956 258.65779342 164.36734696 269.88327795 171.21044922 281.07275391 C174.54279478 286.52361656 177.86785811 291.97889403 181.1875 297.4375 C181.53907166 298.01545319 181.89064331 298.59340637 182.25286865 299.18887329 C188.5717986 309.58350405 194.78259782 320.04055163 200.97616577 330.51022339 C205.73876757 338.55744399 210.54241147 346.57072954 215.5 354.5 C220.88324357 363.11007201 226.08015391 371.82342076 231.25 380.5625 C237.32177955 390.82453505 243.42719428 401.06351279 249.625 411.25 C249.9723822 411.82110504 250.3197644 412.39221008 250.67767334 412.98062134 C253.11612963 416.98849531 255.55765918 420.99449236 258 425 C260.79385608 429.58200254 263.58621509 434.16490881 266.375 438.75 C266.72158661 439.31975555 267.06817322 439.88951111 267.42526245 440.47653198 C273.65952555 450.73194447 279.7922469 461.04615865 285.90759277 471.37280273 C292.59177956 482.65779342 299.36734696 493.88327795 306.21044922 505.07275391 C309.54279478 510.52361656 312.86785811 515.97889403 316.1875 521.4375 C316.53907166 522.01545319 316.89064331 522.59340637 317.25286865 523.18887329 C323.5717986 533.58350405 329.78259782 544.04055163 335.97616577 554.51022339 C340.73876757 562.55744399 345.54241147 570.57072954 350.5 578.5 C355.88324357 587.11007201 361.08015391 595.82342076 366.25 604.5625 C372.32177955 614.82453505 378.42719428 625.06351279 384.625 635.25 C384.9723822 635.82110504 385.3197644 636.39221008 385.67767334 636.98062134 C388.11612963 640.98849531 390.55765918 644.99449236 393 649 C395.79385608 653.58200254 398.58621509 658.16490881 401.375 662.75 C401.72158661 663.31975555 402.06817322 663.88951111 402.42526245 664.47653198 C408.65952555 674.73194447 414.7922469 685.04615865 420.90759277 695.37280273 C427.59177956 706.65779342 434.36734696 717.88327795 441.21044922 729.07275391 C444.54279474 734.52361649 447.86788352 739.97887863 451.1875 745.4375 C451.716353 746.3069223 451.716353 746.3069223 452.25588989 747.19390869 C458.5055897 757.47510599 464.64888217 767.81755863 470.77401733 778.17330933 C476.09795081 787.16988483 481.49440268 796.11304487 487 805 C492.92350056 814.56152087 498.71159322 824.19431725 504.4375 833.875 C510.44661324 844.03299614 516.49050186 854.1671559 522.625 864.25 C523.14648117 865.10733734 523.14648117 865.10733734 523.67849731 865.98199463 C526.1166783 869.98941122 528.55793709 873.99494816 531 878 C533.79385608 882.58200254 536.58621509 887.16490881 539.375 891.75 C539.72158661 892.31975555 540.06817322 892.88951111 540.42526245 893.47653198 C546.65952555 903.73194447 552.7922469 914.04615865 558.90759277 924.37280273 C565.59177956 935.65779342 572.36734696 946.88327795 579.21044922 958.07275391 C582.54279478 963.52361656 585.86785811 968.97889403 589.1875 974.4375 C589.53907166 975.01545319 589.89064331 975.59340637 590.25286865 976.18887329 C596.5717986 986.58350405 602.78259782 997.04055163 608.97616577 1007.51022339 C613.73876757 1015.55744399 618.54241147 1023.57072954 623.5 1031.5 C628.88324357 1040.11007201 634.08015391 1048.82342076 639.25 1057.5625 C645.32177955 1067.82453505 651.42719428 1078.06351279 657.625 1088.25 C657.9723822 1088.82110504 658.3197644 1089.39221008 658.67767334 1089.98062134 C661.11612963 1093.98849531 663.55765918 1097.99449236 666 1102 C668.79385608 1106.58200254 671.58621509 1111.16490881 674.375 1115.75 C674.72158661 1116.31975555 675.06817322 1116.88951111 675.42526245 1117.47653198 C681.65952555 1127.73194447 687.7922469 1138.04615865 693.90759277 1148.37280273 C700.59177956 1159.65779342 707.36734696 1170.88327795 714.21044922 1182.07275391 C717.54279474 1187.52361649 720.86788352 1192.97887863 724.1875 1198.4375 C724.716353 1199.3069223 724.716353 1199.3069223 725.25588989 1200.19390869 C731.5055897 1210.47510599 737.64888217 1220.81755863 743.77401733 1231.17330933 C749.09795081 1240.16988483 754.49440268 1249.11304487 760 1258 C765.92350056 1267.56152087 771.71159322 1277.19431725 777.4375 1286.875 C783.44661324 1297.03299614 789.49050186 1307.1671559 795.625 1317.25 C796.14648117 1318.10733734 796.14648117 1318.10733734 796.67849731 1318.98199463 C799.1166783 1322.98941122 801.55793709 1326.99494816 804 1331 C806.79385608 1335.58200254 809.58621509 1340.16490881 812.375 1344.75 C812.72158661 1345.31975555 813.06817322 1345.88951111 813.42526245 1346.47653198 C819.65952555 1356.73194447 825.7922469 1367.04615865 831.90759277 1377.37280273 C838.59177956 1388.65779342 845.36734696 1399.88327795 852.21044922 1411.07275391 C855.54279478 1416.52361656 858.86785811 1421.97889403 862.1875 1427.4375 C862.53907166 1428.01545319 862.89064331 1428.59340637 863.25286865 1429.18887329 C869.5717986 1439.58350405 875.78259782 1450.04055163 881.97616577 1460.51022339 C886.73876757 1468.55744399 891.54241147 1476.57072954 896.5 1484.5 C901.88324357 1493.11007201 907.08015391 1501.82342076 912.25 1510.5625 C918.32177955 1520.82453505 924.42719428 1531.06351279 930.625 1541.25 C930.9723822 1541.82110504 931.3197644 1542.39221008 931.67767334 1542.98062134 C934.11612963 1546.98849531 936.55765918 1550.99449236 939 1555 C941.79385608 1559.58200254 944.58621509 1564.16490881 947.375 1568.75 C947.72158661 1569.31975555 948.06817322 1569.88951111 948.42526245 1570.47653198 C954.65787526 1580.72922972 960.78981219 1591.04024809 966.90255737 1601.36474609 C972.0304343 1610.02443415 977.19275834 1618.66032616 982.4375 1627.25 C982.99091064 1628.15685547 983.54432129 1629.06371094 984.11450195 1629.99804688 C985.19745409 1631.77205633 986.28054074 1633.54598368 987.36376953 1635.31982422 C990.20846068 1639.97948095 993.04794629 1644.64211807 995.875 1649.3125 C996.65315063 1650.58625488 996.65315063 1650.58625488 997.44702148 1651.88574219 C997.91567627 1652.66208008 998.38433105 1653.43841797 998.8671875 1654.23828125 C999.28081543 1654.91930908 999.69444336 1655.60033691 1000.12060547 1656.30200195 C1001 1658 1001 1658 1001 1660 C1000.01902344 1660.54527344 999.03804687 1661.09054687 998.02734375 1661.65234375 C990.6351679 1665.77657496 983.29891692 1669.9713528 976.0546875 1674.3503418 C970.53620975 1677.6853664 964.99049135 1680.97279293 959.4375 1684.25 C958.50341309 1684.80139648 957.56932617 1685.35279297 956.60693359 1685.92089844 C954.69230193 1687.05091999 952.77758775 1688.18080174 950.86279297 1689.31054688 C946.2406289 1692.03827802 941.62038912 1694.76926382 937 1697.5 C935.16667639 1698.58334979 933.33334305 1699.66668311 931.5 1700.75 C930.5925 1701.28625 929.685 1701.8225 928.75 1702.375 C832.49999997 1759.25000002 832.49999997 1759.25000002 829.7512207 1760.87426758 C827.9138054 1761.96002039 826.07640311 1763.04579521 824.23901367 1764.1315918 C819.71823958 1766.80308561 815.19725666 1769.47422455 810.67578125 1772.14453125 C800.61244711 1778.08837188 790.55389578 1784.04020729 780.5 1790 C769.56202683 1796.48386001 758.61796327 1802.95732388 747.66943359 1809.42333984 C743.11251506 1812.11481413 738.55629881 1814.80747679 734 1817.5 C732.16666991 1818.58333881 730.33333658 1819.66667215 728.5 1820.75 C727.5925 1821.28625 726.685 1821.8225 725.75 1822.375 C629.50000005 1879.24999997 629.50000005 1879.24999997 626.7512207 1880.87426758 C624.9138054 1881.96002039 623.07640311 1883.04579521 621.23901367 1884.1315918 C616.71823958 1886.80308561 612.19725666 1889.47422455 607.67578125 1892.14453125 C597.61244711 1898.08837188 587.55389578 1904.04020729 577.5 1910 C566.56202683 1916.48386001 555.61796327 1922.95732388 544.66943359 1929.42333984 C540.11251506 1932.11481413 535.55629881 1934.80747679 531 1937.5 C529.16666991 1938.58333881 527.33333658 1939.66667215 525.5 1940.75 C524.5925 1941.28625 523.685 1941.8225 522.75 1942.375 C426.49999998 1999.25000001 426.49999998 1999.25000001 423.7512207 2000.87426758 C421.9138054 2001.96002039 420.07640311 2003.04579521 418.23901367 2004.1315918 C413.71823958 2006.80308561 409.19725666 2009.47422455 404.67578125 2012.14453125 C394.61244711 2018.08837188 384.55389578 2024.04020729 374.5 2030 C363.56202683 2036.48386001 352.61796327 2042.95732388 341.66943359 2049.42333984 C337.11251506 2052.11481413 332.55629881 2054.80747679 328 2057.5 C326.16666991 2058.58333881 324.33333658 2059.66667215 322.5 2060.75 C321.5925 2061.28625 320.685 2061.8225 319.75 2062.375 C223.49999997 2119.25000002 223.49999997 2119.25000002 220.7512207 2120.87426758 C218.9138054 2121.96002039 217.07640311 2123.04579521 215.23901367 2124.1315918 C210.71823958 2126.80308561 206.19725666 2129.47422455 201.67578125 2132.14453125 C191.61244711 2138.08837188 181.55389578 2144.04020729 171.5 2150 C160.56202683 2156.48386001 149.61796327 2162.95732388 138.66943359 2169.42333984 C134.11251506 2172.11481413 129.55629881 2174.80747679 125 2177.5 C123.16666991 2178.58333881 121.33333658 2179.66667215 119.5 2180.75 C118.5925 2181.28625 117.685 2181.8225 116.75 2182.375 C92 2197 67.25 2211.625 42.5 2226.25 C41.59113037 2226.7872168 40.68226074 2227.32443359 39.74584961 2227.87792969 C37.92690875 2228.95244227 36.10741673 2230.02602243 34.28735352 2231.09863281 C29.47869569 2233.93420923 24.68288963 2236.7891185 19.90234375 2239.671875 C18.90396484 2240.27064453 17.90558594 2240.86941406 16.87695312 2241.48632812 C14.96192401 2242.63534559 13.0502757 2243.79002262 11.14257812 2244.95117188 C10.27955078 2245.46744141 9.41652344 2245.98371094 8.52734375 2246.515625 C7.77187256 2246.97227539 7.01640137 2247.42892578 6.23803711 2247.89941406 C3.68377744 2249.15550685 1.85391984 2249.83044152 -1 2250 C-3.80126953 2248.80688477 -3.80126953 2248.80688477 -6.8828125 2246.94140625 C-7.44591629 2246.60622482 -8.00902008 2246.2710434 -8.58918762 2245.92570496 C-10.4429003 2244.81806125 -12.28357335 2243.6904297 -14.125 2242.5625 C-15.42304775 2241.78209349 -16.72197105 2241.0031416 -18.02172852 2240.22558594 C-20.70288393 2238.61917925 -23.37931273 2237.00530296 -26.05224609 2235.38525391 C-31.9860101 2231.7928829 -37.96485822 2228.27722224 -43.9375 2224.75 C-46.1696021 2223.42633971 -48.40137829 2222.10212966 -50.6328125 2220.77734375 C-56.52206657 2217.28231914 -62.416042 2213.79535457 -68.3125 2210.3125 C-69.20122803 2209.7875293 -70.08995605 2209.26255859 -71.00561523 2208.72167969 C-72.78057085 2207.67329226 -74.55555441 2206.62495214 -76.33056641 2205.57666016 C-80.88748494 2202.88518587 -85.44370119 2200.19252321 -90 2197.5 C-91.83333009 2196.41666119 -93.66666342 2195.33332785 -95.5 2194.25 C-121.16666667 2179.08333333 -146.83333333 2163.91666667 -172.5 2148.75 C-173.86064575 2147.94598755 -173.86064575 2147.94598755 -175.2487793 2147.12573242 C-177.0861946 2146.03997961 -178.92359689 2144.95420479 -180.76098633 2143.8684082 C-185.28176042 2141.19691439 -189.80274334 2138.52577545 -194.32421875 2135.85546875 C-204.96554957 2129.57023827 -215.60101139 2123.27518174 -226.23236084 2116.9730835 C-236.59295994 2110.83166666 -246.96004974 2104.70131144 -257.33056641 2098.57666016 C-261.88748494 2095.88518587 -266.44370119 2093.19252321 -271 2090.5 C-272.83333009 2089.41666119 -274.66666342 2088.33332785 -276.5 2087.25 C-309.5 2067.75 -342.5 2048.25 -375.5 2028.75 C-376.86064575 2027.94598755 -376.86064575 2027.94598755 -378.2487793 2027.12573242 C-380.0861946 2026.03997961 -381.92359689 2024.95420479 -383.76098633 2023.8684082 C-388.28176042 2021.19691439 -392.80274334 2018.52577545 -397.32421875 2015.85546875 C-407.96554957 2009.57023827 -418.60101139 2003.27518174 -429.23236084 1996.9730835 C-439.59295994 1990.83166666 -449.96004974 1984.70131144 -460.33056641 1978.57666016 C-464.88748494 1975.88518587 -469.44370119 1973.19252321 -474 1970.5 C-475.83333009 1969.41666119 -477.66666342 1968.33332785 -479.5 1967.25 C-512.5 1947.75 -545.5 1928.25 -578.5 1908.75 C-579.86064575 1907.94598755 -579.86064575 1907.94598755 -581.2487793 1907.12573242 C-583.0861946 1906.03997961 -584.92359689 1904.95420479 -586.76098633 1903.8684082 C-591.28176042 1901.19691439 -595.80274334 1898.52577545 -600.32421875 1895.85546875 C-610.96554957 1889.57023827 -621.60101139 1883.27518174 -632.23236084 1876.9730835 C-642.59295994 1870.83166666 -652.96004974 1864.70131144 -663.33056641 1858.57666016 C-667.88748494 1855.88518587 -672.44370119 1853.19252321 -677 1850.5 C-678.83333009 1849.41666119 -680.66666342 1848.33332785 -682.5 1847.25 C-715.5 1827.75 -748.5 1808.25 -781.5 1788.75 C-782.86064575 1787.94598755 -782.86064575 1787.94598755 -784.2487793 1787.12573242 C-786.0861946 1786.03997961 -787.92359689 1784.95420479 -789.76098633 1783.8684082 C-794.28176042 1781.19691439 -798.80274334 1778.52577545 -803.32421875 1775.85546875 C-813.96554957 1769.57023827 -824.60101139 1763.27518174 -835.23236084 1756.9730835 C-845.59295994 1750.83166666 -855.96004974 1744.70131144 -866.33056641 1738.57666016 C-870.88748494 1735.88518587 -875.44370119 1733.19252321 -880 1730.5 C-881.83333009 1729.41666119 -883.66666342 1728.33332785 -885.5 1727.25 C-903.83333333 1716.41666667 -922.16666667 1705.58333333 -940.5 1694.75 C-941.40766113 1694.21366943 -942.31532227 1693.67733887 -943.25048828 1693.12475586 C-945.08224587 1692.04232408 -946.91395167 1690.95980466 -948.74560547 1689.87719727 C-953.35262529 1687.15434617 -957.96055894 1684.43306446 -962.5703125 1681.71484375 C-974.74706398 1674.53190458 -986.88863988 1667.29266955 -999 1660 C-998.41781612 1655.85861951 -997.05066586 1653.05102354 -994.8515625 1649.51171875 C-994.18576172 1648.42955078 -993.51996094 1647.34738281 -992.83398438 1646.23242188 C-992.47522217 1645.6567749 -992.11645996 1645.08112793 -991.74682617 1644.48803711 C-989.79762675 1641.35956143 -987.87351849 1638.21565981 -985.9453125 1635.07421875 C-985.33740875 1634.08613724 -985.33740875 1634.08613724 -984.71722412 1633.07809448 C-980.63493142 1626.43268634 -976.65655078 1619.72726054 -972.68933105 1613.01272583 C-966.31244595 1602.22101118 -959.88931916 1591.45934893 -953.375 1580.75 C-953.02725525 1580.1782605 -952.6795105 1579.606521 -952.32122803 1579.01745605 C-949.5364429 1574.44038652 -946.74745795 1569.86588018 -943.95825195 1565.29150391 C-941.51182878 1561.27888853 -939.06726626 1557.26514691 -936.625 1553.25 C-936.10561859 1552.39636368 -936.10561859 1552.39636368 -935.57574463 1551.52548218 C-929.31313172 1541.22594967 -923.1603523 1530.86293237 -917.02301025 1520.48840332 C-911.77418042 1511.6196092 -906.44605822 1502.81140778 -900.98242188 1494.07275391 C-896.12027955 1486.26381256 -891.43341532 1478.35431935 -886.75 1470.4375 C-880.67822045 1460.17546495 -874.57280572 1449.93648721 -868.375 1439.75 C-867.8539267 1438.89334244 -867.8539267 1438.89334244 -867.32232666 1438.01937866 C-864.53717324 1433.44166942 -861.74784212 1428.86651023 -858.95825195 1424.29150391 C-856.51182881 1420.27888858 -854.06716557 1416.26520814 -851.625 1412.25 C-851.10512009 1411.39536667 -851.10512009 1411.39536667 -850.57473755 1410.52346802 C-844.34047445 1400.26805553 -838.2077531 1389.95384135 -832.09240723 1379.62719727 C-825.40822044 1368.34220658 -818.63265304 1357.11672205 -811.78955078 1345.92724609 C-808.45720526 1340.47638351 -805.13211648 1335.02112137 -801.8125 1329.5625 C-801.45993134 1328.98288513 -801.10736267 1328.40327026 -800.74411011 1327.80609131 C-794.4944103 1317.52489401 -788.35111783 1307.18244137 -782.22598267 1296.82669067 C-776.27511683 1286.77070217 -770.21004965 1276.79572445 -764.05615234 1266.86230469 C-758.79163671 1258.3412933 -753.66149197 1249.74576968 -748.5625 1241.125 C-742.55338676 1230.96700386 -736.50949814 1220.8328441 -730.375 1210.75 C-730.02734589 1210.17844177 -729.67969177 1209.60688354 -729.32150269 1209.01800537 C-726.53662426 1204.44075371 -723.7475642 1199.86605443 -720.95825195 1195.29150391 C-718.51182881 1191.27888858 -716.06716557 1187.26520814 -713.625 1183.25 C-713.27841339 1182.68024445 -712.93182678 1182.11048889 -712.57473755 1181.52346802 C-706.34047445 1171.26805553 -700.2077531 1160.95384135 -694.09240723 1150.62719727 C-687.40822044 1139.34220658 -680.63265304 1128.11672205 -673.78955078 1116.92724609 C-670.45720522 1111.47638344 -667.13214189 1106.02110597 -663.8125 1100.5625 C-663.46092834 1099.98454681 -663.10935669 1099.40659363 -662.74713135 1098.81112671 C-656.4282014 1088.41649595 -650.21740218 1077.95944837 -644.02383423 1067.48977661 C-638.77472842 1058.62052526 -633.44634129 1049.81186054 -627.98242188 1041.07275391 C-623.12027955 1033.26381256 -618.43341532 1025.35431935 -613.75 1017.4375 C-607.67822045 1007.17546495 -601.57280572 996.93648721 -595.375 986.75 C-595.0276178 986.17889496 -594.6802356 985.60778992 -594.32232666 985.01937866 C-591.53717324 980.44166942 -588.74784212 975.86651023 -585.95825195 971.29150391 C-583.51182881 967.27888858 -581.06716557 963.26520814 -578.625 959.25 C-578.27841339 958.68024445 -577.93182678 958.11048889 -577.57473755 957.52346802 C-571.34047445 947.26805553 -565.2077531 936.95384135 -559.09240723 926.62719727 C-552.40822044 915.34220658 -545.63265304 904.11672205 -538.78955078 892.92724609 C-535.45720526 887.47638351 -532.13211648 882.02112137 -528.8125 876.5625 C-528.45993134 875.98288513 -528.10736267 875.40327026 -527.74411011 874.80609131 C-521.4944103 864.52489401 -515.35111783 854.18244137 -509.22598267 843.82669067 C-503.27511683 833.77070217 -497.21004965 823.79572445 -491.05615234 813.86230469 C-485.79163671 805.3412933 -480.66149197 796.74576968 -475.5625 788.125 C-469.55338676 777.96700386 -463.50949814 767.8328441 -457.375 757.75 C-457.02734589 757.17844177 -456.67969177 756.60688354 -456.32150269 756.01800537 C-453.53662426 751.44075371 -450.7475642 746.86605443 -447.95825195 742.29150391 C-445.51182881 738.27888858 -443.06716557 734.26520814 -440.625 730.25 C-440.27841339 729.68024445 -439.93182678 729.11048889 -439.57473755 728.52346802 C-433.34047445 718.26805553 -427.2077531 707.95384135 -421.09240723 697.62719727 C-414.40822044 686.34220658 -407.63265304 675.11672205 -400.78955078 663.92724609 C-397.45720522 658.47638344 -394.13214189 653.02110597 -390.8125 647.5625 C-390.28514252 646.69557022 -390.28514252 646.69557022 -389.74713135 645.81112671 C-383.4282014 635.41649595 -377.21740218 624.95944837 -371.02383423 614.48977661 C-365.77472842 605.62052526 -360.44634129 596.81186054 -354.98242188 588.07275391 C-350.12027955 580.26381256 -345.43341532 572.35431935 -340.75 564.4375 C-334.67822045 554.17546495 -328.57280572 543.93648721 -322.375 533.75 C-322.0276178 533.17889496 -321.6802356 532.60778992 -321.32232666 532.01937866 C-318.53717324 527.44166942 -315.74784212 522.86651023 -312.95825195 518.29150391 C-310.51182881 514.27888858 -308.06716557 510.26520814 -305.625 506.25 C-305.27841339 505.68024445 -304.93182678 505.11048889 -304.57473755 504.52346802 C-298.34047445 494.26805553 -292.2077531 483.95384135 -286.09240723 473.62719727 C-279.40822044 462.34220658 -272.63265304 451.11672205 -265.78955078 439.92724609 C-262.45720526 434.47638351 -259.13211648 429.02112137 -255.8125 423.5625 C-255.45993134 422.98288513 -255.10736267 422.40327026 -254.74411011 421.80609131 C-248.4944103 411.52489401 -242.35111783 401.18244137 -236.22598267 390.82669067 C-230.27511683 380.77070217 -224.21004965 370.79572445 -218.05615234 360.86230469 C-212.79163671 352.3412933 -207.66149197 343.74576968 -202.5625 335.125 C-196.55338676 324.96700386 -190.50949814 314.8328441 -184.375 304.75 C-184.02734589 304.17844177 -183.67969177 303.60688354 -183.32150269 303.01800537 C-180.53662426 298.44075371 -177.7475642 293.86605443 -174.95825195 289.29150391 C-172.51182881 285.27888858 -170.06716557 281.26520814 -167.625 277.25 C-167.27841339 276.68024445 -166.93182678 276.11048889 -166.57473755 275.52346802 C-160.34047445 265.26805553 -154.2077531 254.95384135 -148.09240723 244.62719727 C-141.40822044 233.34220658 -134.63265304 222.11672205 -127.78955078 210.92724609 C-124.45720522 205.47638344 -121.13214189 200.02110597 -117.8125 194.5625 C-117.28514252 193.69557022 -117.28514252 193.69557022 -116.74713135 192.81112671 C-110.4282014 182.41649595 -104.21740218 171.95944837 -98.02383423 161.48977661 C-92.77472842 152.62052526 -87.44634129 143.81186054 -81.98242188 135.07275391 C-77.12027955 127.26381256 -72.43341532 119.35431935 -67.75 111.4375 C-61.67822045 101.17546495 -55.57280572 90.93648721 -49.375 80.75 C-49.0276178 80.17889496 -48.6802356 79.60778992 -48.32232666 79.01937866 C-45.53717324 74.44166942 -42.74784212 69.86651023 -39.95825195 65.29150391 C-37.51182871 61.27888841 -35.06750666 57.26500071 -32.625 53.25 C-32.28140442 52.68556183 -31.93780884 52.12112366 -31.58380127 51.5395813 C-27.30640087 44.50905995 -23.07215132 37.45447195 -18.8828125 30.37109375 C-18.45380646 29.64610687 -18.02480042 28.92112 -17.58279419 28.17416382 C-15.49375693 24.64211464 -13.40898096 21.10764621 -11.33056641 17.56933594 C-3.66726892 4.55651271 -3.66726892 4.55651271 0 0 Z " fill="#333333" transform="translate(1628,0)"/>
<path d="M0 0 C10.20463009 4.72897492 19.68436693 10.53229622 29.28515625 16.36035156 C33.79616098 19.0848037 38.33528237 21.76125607 42.875 24.4375 C43.78942871 24.97705322 44.70385742 25.51660645 45.64599609 26.07250977 C47.5031263 27.16818727 49.36038563 28.26364596 51.21777344 29.35888672 C55.8135408 32.06972809 60.40664384 34.78507573 65 37.5 C66.83332037 38.58335527 68.66665371 39.6666886 70.5 40.75 C103.5 60.25 103.5 60.25 106.24829102 61.87402344 C108.08728211 62.96067774 109.92631225 64.04726596 111.76538086 65.13378906 C116.26246815 67.79077938 120.75893996 70.44879783 125.25390625 73.109375 C133.14472355 77.77833357 141.0385274 82.44174049 148.953125 87.0703125 C161.52389316 94.42276871 174.06481512 101.81615369 186.53955078 109.33105469 C197.58657924 115.97506577 208.71767408 122.47383485 219.84532166 128.98144531 C228.03449203 133.77252426 236.19813062 138.60677744 244.36279297 143.43945312 C248.90719099 146.12856553 253.45372726 148.8140587 258 151.5 C259.83334305 152.58331689 261.66667639 153.66665021 263.5 154.75 C264.4075 155.28625 265.315 155.8225 266.25 156.375 C357 210 447.75 263.625 695.24829102 409.87402344 C697.08728211 410.96067774 698.92631225 412.04726596 700.76538086 413.13378906 C705.26246815 415.79077938 709.75893996 418.44879783 714.25390625 421.109375 C722.14472355 425.77833357 730.0385274 430.44174049 737.953125 435.0703125 C750.52389316 442.42276871 763.06481512 449.81615369 775.53955078 457.33105469 C786.58657924 463.97506577 797.71767408 470.47383485 808.84532166 476.98144531 C817.03449203 481.77252426 825.19813062 486.60677744 833.36279297 491.43945312 C837.90719099 494.12856553 842.45372726 496.8140587 847 499.5 C848.83334305 500.58331689 850.66667639 501.66665021 852.5 502.75 C853.4075 503.28625 854.315 503.8225 855.25 504.375 C887.33333333 523.33333333 919.41666667 542.29166667 951.5 561.25 C952.40862793 561.78689453 953.31725586 562.32378906 954.25341797 562.87695312 C956.07543594 563.95364428 957.89737683 565.03046589 959.71923828 566.10742188 C964.47505282 568.91848904 969.23243126 571.72686141 973.9921875 574.53125 C974.97703125 575.11197266 975.961875 575.69269531 976.9765625 576.29101562 C978.84845871 577.39472801 980.72082165 578.49764938 982.59375 579.59960938 C983.44710937 580.10298828 984.30046875 580.60636719 985.1796875 581.125 C985.9953418 581.60324219 986.81099609 582.08148437 987.65136719 582.57421875 C989.20296114 583.51614273 990.73114557 584.49788294 992.23144531 585.51953125 C992.92077148 585.98746094 993.61009766 586.45539062 994.3203125 586.9375 C995.21000732 587.56978516 995.21000732 587.56978516 996.11767578 588.21484375 C998.7689297 589.32073643 1000.28387778 588.82994075 1003 588 C1005.16719312 586.98337201 1005.16719312 586.98337201 1007.28125 585.65625 C1008.10794189 585.1607666 1008.93463379 584.6652832 1009.78637695 584.15478516 C1010.68187256 583.60870605 1011.57736816 583.06262695 1012.5 582.5 C1014.48258195 581.30907811 1016.46568168 580.11901791 1018.44921875 578.9296875 C1019.50802246 578.29256836 1020.56682617 577.65544922 1021.65771484 576.99902344 C1026.90503095 573.86059946 1032.18779068 570.78342776 1037.46850586 567.70166016 C1047.18325022 562.02947392 1056.86380111 556.30493909 1066.5 550.5 C1077.36803522 543.95299083 1088.30215754 537.52435555 1099.25405884 531.11920166 C1099.85471161 530.76791199 1100.45536438 530.41662231 1101.07421875 530.0546875 C1101.96661758 529.53282867 1101.96661758 529.53282867 1102.87704468 529.00042725 C1108.2612875 525.85033286 1113.63240517 522.67835222 1119 519.5 C1124.96663009 515.96693676 1130.93993333 512.44572896 1136.92578125 508.9453125 C1137.52643402 508.59402283 1138.12708679 508.24273315 1138.74594116 507.88079834 C1139.35313995 507.52568176 1139.96033875 507.17056519 1140.5859375 506.8046875 C1150.92438869 500.75807889 1161.24062855 494.68034425 1171.5 488.5 C1182.36803522 481.95299083 1193.30215754 475.52435555 1204.25405884 469.11920166 C1204.85471161 468.76791199 1205.45536438 468.41662231 1206.07421875 468.0546875 C1206.96661758 467.53282867 1206.96661758 467.53282867 1207.87704468 467.00042725 C1213.2612875 463.85033286 1218.63240517 460.67835222 1224 457.5 C1229.96663009 453.96693676 1235.93993333 450.44572896 1241.92578125 446.9453125 C1242.52643402 446.59402283 1243.12708679 446.24273315 1243.74594116 445.88079834 C1244.35313995 445.52568176 1244.96033875 445.17056519 1245.5859375 444.8046875 C1255.92438869 438.75807889 1266.24062855 432.68034425 1276.5 426.5 C1287.36803522 419.95299083 1298.30215754 413.52435555 1309.25405884 407.11920166 C1309.85471161 406.76791199 1310.45536438 406.41662231 1311.07421875 406.0546875 C1311.96661758 405.53282867 1311.96661758 405.53282867 1312.87704468 405.00042725 C1318.2612875 401.85033286 1323.63240517 398.67835222 1329 395.5 C1334.96663009 391.96693676 1340.93993333 388.44572896 1346.92578125 384.9453125 C1347.52643402 384.59402283 1348.12708679 384.24273315 1348.74594116 383.88079834 C1349.35313995 383.52568176 1349.96033875 383.17056519 1350.5859375 382.8046875 C1360.92438869 376.75807889 1371.24062855 370.68034425 1381.5 364.5 C1393.55595902 357.23737408 1405.69617596 350.12355214 1417.84532166 343.01855469 C1423.38503653 339.77754124 1428.91332596 336.51741376 1434.4375 333.25 C1435.32324707 332.72615723 1436.20899414 332.20231445 1437.12158203 331.66259766 C1439.74796936 330.10881705 1442.37404806 328.55451632 1445 327 C1448.52042326 324.91597274 1452.04119947 322.83254467 1455.5625 320.75 C1456.45469238 320.22229004 1457.34688477 319.69458008 1458.26611328 319.15087891 C1463.48821289 316.06530117 1468.71719621 312.99173496 1473.953125 309.9296875 C1485.50246804 303.17464772 1497.03888674 296.4042851 1508.5 289.5 C1519.36803522 282.95299083 1530.30215754 276.52435555 1541.25405884 270.11920166 C1541.85471161 269.76791199 1542.45536438 269.41662231 1543.07421875 269.0546875 C1543.96661758 268.53282867 1543.96661758 268.53282867 1544.87704468 268.00042725 C1550.2612875 264.85033286 1555.63240517 261.67835222 1561 258.5 C1566.96663009 254.96693676 1572.93993333 251.44572896 1578.92578125 247.9453125 C1579.52643402 247.59402283 1580.12708679 247.24273315 1580.74594116 246.88079834 C1581.35313995 246.52568176 1581.96033875 246.17056519 1582.5859375 245.8046875 C1592.92438869 239.75807889 1603.24062855 233.68034425 1613.5 227.5 C1624.36803522 220.95299083 1635.30215754 214.52435555 1646.25405884 208.11920166 C1646.85471161 207.76791199 1647.45536438 207.41662231 1648.07421875 207.0546875 C1648.66915131 206.70678162 1649.26408386 206.35887573 1649.87704468 206.00042725 C1655.2612875 202.85033286 1660.63240517 199.67835222 1666 196.5 C1671.96663009 192.96693676 1677.93993333 189.44572896 1683.92578125 185.9453125 C1684.52643402 185.59402283 1685.12708679 185.24273315 1685.74594116 184.88079834 C1686.35313995 184.52568176 1686.96033875 184.17056519 1687.5859375 183.8046875 C1697.92438869 177.75807889 1708.24062855 171.68034425 1718.5 165.5 C1729.36803522 158.95299083 1740.30215754 152.52435555 1751.25405884 146.11920166 C1751.85471161 145.76791199 1752.45536438 145.41662231 1753.07421875 145.0546875 C1753.66915131 144.70678162 1754.26408386 144.35887573 1754.87704468 144.00042725 C1760.2612875 140.85033286 1765.63240517 137.67835222 1771 134.5 C1776.96663009 130.96693676 1782.93993333 127.44572896 1788.92578125 123.9453125 C1789.52643402 123.59402283 1790.12708679 123.24273315 1790.74594116 122.88079834 C1791.35313995 122.52568176 1791.96033875 122.17056519 1792.5859375 121.8046875 C1802.92438869 115.75807889 1813.24062855 109.68034425 1823.5 103.5 C1834.36803522 96.95299083 1845.30215754 90.52435555 1856.25405884 84.11920166 C1856.85471161 83.76791199 1857.45536438 83.41662231 1858.07421875 83.0546875 C1858.66915131 82.70678162 1859.26408386 82.35887573 1859.87704468 82.00042725 C1865.2612875 78.85033286 1870.63240517 75.67835222 1876 72.5 C1881.96663009 68.96693676 1887.93993333 65.44572896 1893.92578125 61.9453125 C1894.52643402 61.59402283 1895.12708679 61.24273315 1895.74594116 60.88079834 C1896.35313995 60.52568176 1896.96033875 60.17056519 1897.5859375 59.8046875 C1907.92438869 53.75807889 1918.24062855 47.68034425 1928.5 41.5 C1938.74385161 35.32900505 1949.04299216 29.25776494 1959.36791992 23.22387695 C1960.57603121 22.51777869 1961.78412059 21.81164294 1962.9921875 21.10546875 C1963.58278458 20.76024673 1964.17338165 20.41502472 1964.78187561 20.05934143 C1968.67842989 17.7794151 1972.56473541 15.48284265 1976.4453125 13.17578125 C1977.44087158 12.5842627 1978.43643066 11.99274414 1979.4621582 11.38330078 C1981.29281124 10.29416023 1983.12218861 9.20287105 1984.94995117 8.10888672 C1989.87488356 5.18044354 1994.84284889 2.49845871 2000 0 C1998.39614165 4.8490922 1995.6463422 8.59238315 1992.6875 12.6875 C1992.15697021 13.43080566 1991.62644043 14.17411133 1991.07983398 14.93994141 C1988.32787252 18.78857344 1985.55231566 22.61999586 1982.7734375 26.44921875 C1981.70306004 27.92443204 1980.63274777 29.39969262 1979.5625 30.875 C1979.02471924 31.61556641 1978.48693848 32.35613281 1977.93286133 33.11914062 C1973.98460397 38.57863361 1970.15895216 44.11315814 1966.375 49.6875 C1962.066153 56.0345408 1957.65629367 62.2816097 1953.08886719 68.44482422 C1949.18113666 73.72435747 1945.39279734 79.08245089 1941.61865234 84.45800781 C1937.98047079 89.63205092 1934.28230647 94.75942932 1930.5625 99.875 C1926.05887862 106.07522799 1921.67892801 112.34715397 1917.375 118.6875 C1913.06671551 125.0337122 1908.65663267 131.27931683 1904.09106445 137.44262695 C1898.59625797 144.86882063 1893.30852251 152.44015641 1888 160 C1881.9264198 168.64209887 1875.82655845 177.26162548 1869.625 185.8125 C1864.41316317 192.99938158 1859.30692209 200.25502775 1854.23095703 207.53833008 C1849.85145249 213.81149404 1845.38977654 220.02040505 1840.89453125 226.2109375 C1836.2647985 232.6006413 1831.74304594 239.06257904 1827.23266602 245.53686523 C1823.35817799 251.088202 1819.42051683 256.5886333 1815.4375 262.0625 C1810.98968443 268.17580311 1806.67654457 274.36528733 1802.4375 280.625 C1797.92771166 287.28117989 1793.24402438 293.75913755 1788.37646484 300.15722656 C1784.48978229 305.28739141 1780.82525013 310.54295748 1777.20996094 315.86669922 C1773.77166394 320.91631501 1770.22168238 325.87469999 1766.625 330.8125 C1762.11364411 337.00875564 1757.73396731 343.27800446 1753.4375 349.625 C1748.92784772 356.28126841 1744.24401918 362.75914439 1739.37646484 369.15722656 C1735.48978229 374.28739141 1731.82525013 379.54295748 1728.20996094 384.86669922 C1724.77166166 389.91631836 1721.22158851 394.87462896 1717.625 399.8125 C1713.09806838 406.03240858 1708.69432303 412.32174293 1704.375 418.6875 C1700.06629601 425.03463392 1695.65628941 431.28161545 1691.08886719 437.44482422 C1687.18113666 442.72435747 1683.39279734 448.08245089 1679.61865234 453.45800781 C1675.98047079 458.63205092 1672.28230647 463.75942932 1668.5625 468.875 C1664.05887862 475.07522799 1659.67892801 481.34715397 1655.375 487.6875 C1651.06671551 494.0337122 1646.65663267 500.27931683 1642.09106445 506.44262695 C1636.59625797 513.86882063 1631.30852251 521.44015641 1626 529 C1619.9264198 537.64209887 1613.82655845 546.26162548 1607.625 554.8125 C1602.41316317 561.99938158 1597.30692209 569.25502775 1592.23095703 576.53833008 C1587.85145249 582.81149404 1583.38977654 589.02040505 1578.89453125 595.2109375 C1574.2647985 601.6006413 1569.74304594 608.06257904 1565.23266602 614.53686523 C1561.35817799 620.088202 1557.42051683 625.5886333 1553.4375 631.0625 C1548.98968443 637.17580311 1544.67654457 643.36528733 1540.4375 649.625 C1535.92771166 656.28117989 1531.24402438 662.75913755 1526.37646484 669.15722656 C1522.48978229 674.28739141 1518.82525013 679.54295748 1515.20996094 684.86669922 C1511.77166166 689.91631836 1508.22158851 694.87462896 1504.625 699.8125 C1500.09806838 706.03240858 1495.69432303 712.32174293 1491.375 718.6875 C1487.06629601 725.03463392 1482.65628941 731.28161545 1478.08886719 737.44482422 C1474.18113666 742.72435747 1470.39279734 748.08245089 1466.61865234 753.45800781 C1462.98047079 758.63205092 1459.28230647 763.75942932 1455.5625 768.875 C1451.05887862 775.07522799 1446.67892801 781.34715397 1442.375 787.6875 C1438.066153 794.0345408 1433.65629367 800.2816097 1429.08886719 806.44482422 C1425.18113666 811.72435747 1421.39279734 817.08245089 1417.61865234 822.45800781 C1413.98047079 827.63205092 1410.28230647 832.75942932 1406.5625 837.875 C1402.05887862 844.07522799 1397.67892801 850.34715397 1393.375 856.6875 C1389.06671551 863.0337122 1384.65663267 869.27931683 1380.09106445 875.44262695 C1374.59625797 882.86882063 1369.30852251 890.44015641 1364 898 C1357.9264198 906.64209887 1351.82655845 915.26162548 1345.625 923.8125 C1340.41316317 930.99938158 1335.30692209 938.25502775 1330.23095703 945.53833008 C1325.85145249 951.81149404 1321.38977654 958.02040505 1316.89453125 964.2109375 C1312.2647985 970.6006413 1307.74304594 977.06257904 1303.23266602 983.53686523 C1299.35817799 989.088202 1295.42051683 994.5886333 1291.4375 1000.0625 C1286.98968443 1006.17580311 1282.67654457 1012.36528733 1278.4375 1018.625 C1273.92771166 1025.28117989 1269.24402438 1031.75913755 1264.37646484 1038.15722656 C1260.48978229 1043.28739141 1256.82525013 1048.54295748 1253.20996094 1053.86669922 C1249.77166166 1058.91631836 1246.22158851 1063.87462896 1242.625 1068.8125 C1238.09806838 1075.03240858 1233.69432303 1081.32174293 1229.375 1087.6875 C1225.06629601 1094.03463392 1220.65628941 1100.28161545 1216.08886719 1106.44482422 C1212.18113666 1111.72435747 1208.39279734 1117.08245089 1204.61865234 1122.45800781 C1200.98047079 1127.63205092 1197.28230647 1132.75942932 1193.5625 1137.875 C1189.05887862 1144.07522799 1184.67892801 1150.34715397 1180.375 1156.6875 C1176.06671551 1163.0337122 1171.65663267 1169.27931683 1167.09106445 1175.44262695 C1161.59625797 1182.86882063 1156.30852251 1190.44015641 1151 1198 C1144.9264198 1206.64209887 1138.82655845 1215.26162548 1132.625 1223.8125 C1127.41316317 1230.99938158 1122.30692209 1238.25502775 1117.23095703 1245.53833008 C1112.85145249 1251.81149404 1108.38977654 1258.02040505 1103.89453125 1264.2109375 C1099.2647985 1270.6006413 1094.74304594 1277.06257904 1090.23266602 1283.53686523 C1086.35817799 1289.088202 1082.42051683 1294.5886333 1078.4375 1300.0625 C1073.98968443 1306.17580311 1069.67654457 1312.36528733 1065.4375 1318.625 C1060.92771166 1325.28117989 1056.24402438 1331.75913755 1051.37646484 1338.15722656 C1047.48978229 1343.28739141 1043.82525013 1348.54295748 1040.20996094 1353.86669922 C1036.77166543 1358.91631283 1033.22174657 1363.87474819 1029.625 1368.8125 C1025.06863001 1375.06903839 1020.65041241 1381.40272013 1016.3125 1387.8125 C1011.14758862 1395.43878405 1005.73364724 1402.79087695 1000 1410 C996.19792785 1406.51177815 993.41867868 1402.52985462 990.5 1398.3125 C989.4258494 1396.77599402 988.35162872 1395.23953703 987.27734375 1393.703125 C986.73190918 1392.92001953 986.18647461 1392.13691406 985.62451172 1391.33007812 C983.1161145 1387.73222073 980.59069969 1384.1464591 978.0625 1380.5625 C977.32374634 1379.51388794 977.32374634 1379.51388794 976.57006836 1378.4440918 C972.94319435 1373.30655869 969.25944348 1368.21224228 965.5625 1363.125 C961.0590758 1356.92462359 956.67893295 1350.65285332 952.375 1344.3125 C948.06671551 1337.9662878 943.65663267 1331.72068317 939.09106445 1325.55737305 C933.59625797 1318.13117937 928.30852251 1310.55984359 923 1303 C916.9264198 1294.35790113 910.82655845 1285.73837452 904.625 1277.1875 C899.41376776 1270.00145213 894.30724949 1262.74723058 889.2331543 1255.46386719 C885.3585303 1249.91226336 881.42058329 1244.41168318 877.4375 1238.9375 C872.97411462 1232.80051443 868.6367868 1226.59107022 864.375 1220.3125 C860.0667321 1213.9662776 855.65663202 1207.72068231 851.09106445 1201.55737305 C845.59625797 1194.13117937 840.30852251 1186.55984359 835 1179 C828.9264198 1170.35790113 822.82655845 1161.73837452 816.625 1153.1875 C811.41376776 1146.00145213 806.30724949 1138.74723058 801.2331543 1131.46386719 C797.3585303 1125.91226336 793.42058329 1120.41168318 789.4375 1114.9375 C784.97411462 1108.80051443 780.6367868 1102.59107022 776.375 1096.3125 C772.0667321 1089.9662776 767.65663202 1083.72068231 763.09106445 1077.55737305 C757.59625797 1070.13117937 752.30852251 1062.55984359 747 1055 C740.9264198 1046.35790113 734.82655845 1037.73837452 728.625 1029.1875 C723.41376776 1022.00145213 718.30724949 1014.74723058 713.2331543 1007.46386719 C709.3585303 1001.91226336 705.42058329 996.41168318 701.4375 990.9375 C696.97411462 984.80051443 692.6367868 978.59107022 688.375 972.3125 C684.0667321 965.9662776 679.65663202 959.72068231 675.09106445 953.55737305 C669.59625797 946.13117937 664.30852251 938.55984359 659 931 C657.02255116 928.18628753 655.0434093 925.37377732 653.0625 922.5625 C652.56943359 921.86253906 652.07636719 921.16257812 651.56835938 920.44140625 C647.9417973 915.30495257 644.25882038 910.21138485 640.5625 905.125 C636.0590758 898.92462359 631.67893295 892.65285332 627.375 886.3125 C623.06671551 879.9662878 618.65663267 873.72068317 614.09106445 867.55737305 C608.59625797 860.13117937 603.30852251 852.55984359 598 845 C591.9264198 836.35790113 585.82655845 827.73837452 579.625 819.1875 C574.41376776 812.00145213 569.30724949 804.74723058 564.2331543 797.46386719 C560.3585303 791.91226336 556.42058329 786.41168318 552.4375 780.9375 C547.97411462 774.80051443 543.6367868 768.59107022 539.375 762.3125 C535.0667321 755.9662776 530.65663202 749.72068231 526.09106445 743.55737305 C520.59625797 736.13117937 515.30852251 728.55984359 510 721 C503.9264198 712.35790113 497.82655845 703.73837452 491.625 695.1875 C486.41376776 688.00145213 481.30724949 680.74723058 476.2331543 673.46386719 C472.3585303 667.91226336 468.42058329 662.41168318 464.4375 656.9375 C459.97411462 650.80051443 455.6367868 644.59107022 451.375 638.3125 C447.0667321 631.9662776 442.65663202 625.72068231 438.09106445 619.55737305 C432.59625797 612.13117937 427.30852251 604.55984359 422 597 C420.02255116 594.18628753 418.0434093 591.37377732 416.0625 588.5625 C415.56943359 587.86253906 415.07636719 587.16257812 414.56835938 586.44140625 C410.9417973 581.30495257 407.25882038 576.21138485 403.5625 571.125 C399.0590758 564.92462359 394.67893295 558.65285332 390.375 552.3125 C386.06671551 545.9662878 381.65663267 539.72068317 377.09106445 533.55737305 C371.59625797 526.13117937 366.30852251 518.55984359 361 511 C354.9264198 502.35790113 348.82655845 493.73837452 342.625 485.1875 C337.41376776 478.00145213 332.30724949 470.74723058 327.2331543 463.46386719 C323.3585303 457.91226336 319.42058329 452.41168318 315.4375 446.9375 C310.97411462 440.80051443 306.6367868 434.59107022 302.375 428.3125 C298.0667321 421.9662776 293.65663202 415.72068231 289.09106445 409.55737305 C283.59625797 402.13117937 278.30852251 394.55984359 273 387 C266.9264198 378.35790113 260.82655845 369.73837452 254.625 361.1875 C249.41376776 354.00145213 244.30724949 346.74723058 239.2331543 339.46386719 C235.3585303 333.91226336 231.42058329 328.41168318 227.4375 322.9375 C222.97411462 316.80051443 218.6367868 310.59107022 214.375 304.3125 C210.0667321 297.9662776 205.65663202 291.72068231 201.09106445 285.55737305 C195.59625797 278.13117937 190.30852251 270.55984359 185 263 C178.9264198 254.35790113 172.82655845 245.73837452 166.625 237.1875 C161.41376776 230.00145213 156.30724949 222.74723058 151.2331543 215.46386719 C147.3585303 209.91226336 143.42058329 204.41168318 139.4375 198.9375 C134.97411462 192.80051443 130.6367868 186.59107022 126.375 180.3125 C122.0667321 173.9662776 117.65663202 167.72068231 113.09106445 161.55737305 C107.59625797 154.13117937 102.30852251 146.55984359 97 139 C95.02255116 136.18628753 93.0434093 133.37377732 91.0625 130.5625 C90.56943359 129.86253906 90.07636719 129.16257812 89.56835938 128.44140625 C85.9417973 123.30495257 82.25882038 118.21138485 78.5625 113.125 C74.0590758 106.92462359 69.67893295 100.65285332 65.375 94.3125 C61.06671551 87.9662878 56.65663267 81.72068317 52.09106445 75.55737305 C46.59625797 68.13117937 41.30852251 60.55984359 36 53 C34.02255117 50.18628754 32.04343407 47.37375987 30.0625 44.5625 C29.57088379 43.86471436 29.07926758 43.16692871 28.57275391 42.44799805 C24.90111046 37.24839249 21.17575062 32.08934229 17.4375 26.9375 C13.1342397 20.99511815 8.87191328 15.02678886 4.6875 9 C4.21304443 8.32316162 3.73858887 7.64632324 3.24975586 6.94897461 C0 2.23508996 0 2.23508996 0 0 Z " fill="#8B8B8B" transform="translate(629,1848)"/>
<path d="M0 0 C0.33 0 0.66 0 1 0 C1 397.32 1 794.64 1 1204 C-17.43443388 1213.21721694 -17.43443388 1213.21721694 -23.828125 1216.15625 C-24.57260895 1216.50066635 -25.3170929 1216.8450827 -26.08413696 1217.19993591 C-28.47141066 1218.30290662 -30.86056182 1219.40172717 -33.25 1220.5 C-34.0890387 1220.88672882 -34.92807739 1221.27345764 -35.7925415 1221.67190552 C-48.50574473 1227.53043025 -61.27216778 1233.25945173 -74.07897949 1238.90991211 C-87.16541854 1244.68751622 -100.14757286 1250.6748719 -113.11322021 1256.71798706 C-125.75037714 1262.60493026 -138.44228811 1268.34597866 -151.19873047 1273.96923828 C-163.36667725 1279.3373708 -175.44574526 1284.88158685 -187.5 1290.5 C-201.00736029 1296.7956966 -214.56246463 1302.95813731 -228.19873047 1308.96923828 C-240.36667725 1314.3373708 -252.44574526 1319.88158685 -264.5 1325.5 C-278.00736029 1331.7956966 -291.56246463 1337.95813731 -305.19873047 1343.96923828 C-317.36667725 1349.3373708 -329.44574526 1354.88158685 -341.5 1360.5 C-355.00736029 1366.7956966 -368.56246463 1372.95813731 -382.19873047 1378.96923828 C-394.36667725 1384.3373708 -406.44574526 1389.88158685 -418.5 1395.5 C-432.00736029 1401.7956966 -445.56246463 1407.95813731 -459.19873047 1413.96923828 C-471.36667725 1419.3373708 -483.44574526 1424.88158685 -495.5 1430.5 C-508.28082469 1436.45706288 -521.09726054 1442.31173018 -534 1448 C-548.72245414 1454.49208887 -563.33226271 1461.20939702 -577.92041016 1467.99731445 C-589.88524388 1473.56383949 -601.87774135 1479.06444727 -613.89794922 1484.51025391 C-615.23535896 1485.11619461 -616.57276131 1485.72215163 -617.91015625 1486.328125 C-618.57082092 1486.62741913 -619.2314856 1486.92671326 -619.91217041 1487.2350769 C-624.80018442 1489.45126847 -629.68082427 1491.68323539 -634.55859375 1493.921875 C-649.94726082 1500.98234422 -665.36759705 1507.95654382 -680.85513306 1514.7975769 C-694.01399299 1520.61596443 -707.0714298 1526.63953138 -720.11212158 1532.71743774 C-732.74964311 1538.60457099 -745.44191216 1544.34581293 -758.19873047 1549.96923828 C-770.36667725 1555.3373708 -782.44574526 1560.88158685 -794.5 1566.5 C-808.00736029 1572.7956966 -821.56246463 1578.95813731 -835.19873047 1584.96923828 C-847.36667725 1590.3373708 -859.44574526 1595.88158685 -871.5 1601.5 C-885.00435877 1607.79429762 -898.55635288 1613.95561496 -912.18966675 1619.96520996 C-924.54826901 1625.41725627 -936.81648974 1631.04994661 -949.0625 1636.75 C-973.66396745 1648.1860108 -973.66396745 1648.1860108 -984.875 1653.25 C-985.97980713 1653.75756836 -987.08461426 1654.26513672 -988.22290039 1654.78808594 C-989.21926514 1655.23442383 -990.21562988 1655.68076172 -991.2421875 1656.140625 C-992.0966748 1656.52766602 -992.95116211 1656.91470703 -993.83154297 1657.31347656 C-996 1658 -996 1658 -999 1657 C-991.70706609 1644.56172097 -984.31435567 1632.18856794 -976.80947876 1619.87704468 C-970.88210509 1610.14891489 -965.04920881 1600.36748807 -959.25 1590.5625 C-953.59410036 1581.00083347 -947.87214474 1571.49289945 -941.98242188 1562.07275391 C-937.12027955 1554.26381256 -932.43341532 1546.35431935 -927.75 1538.4375 C-921.67822045 1528.17546495 -915.57280572 1517.93648721 -909.375 1507.75 C-908.8539267 1506.89334244 -908.8539267 1506.89334244 -908.32232666 1506.01937866 C-905.53717324 1501.44166942 -902.74784212 1496.86651023 -899.95825195 1492.29150391 C-897.51182879 1488.27888853 -895.06724706 1484.26515859 -892.625 1480.25 C-892.27774872 1479.67924744 -891.93049744 1479.10849487 -891.57272339 1478.52044678 C-885.37935791 1468.33433678 -879.29407597 1458.08592153 -873.22515869 1447.82531738 C-867.27456942 1437.76978579 -861.20976841 1427.79527049 -855.05615234 1417.86230469 C-849.79163671 1409.3412933 -844.66149197 1400.74576968 -839.5625 1392.125 C-833.55338676 1381.96700386 -827.50949814 1371.8328441 -821.375 1361.75 C-821.02734589 1361.17844177 -820.67969177 1360.60688354 -820.32150269 1360.01800537 C-817.53662426 1355.44075371 -814.7475642 1350.86605443 -811.95825195 1346.29150391 C-809.51182881 1342.27888858 -807.06716557 1338.26520814 -804.625 1334.25 C-804.10512009 1333.39536667 -804.10512009 1333.39536667 -803.57473755 1332.52346802 C-797.34047445 1322.26805553 -791.2077531 1311.95384135 -785.09240723 1301.62719727 C-778.40822044 1290.34220658 -771.63265304 1279.11672205 -764.78955078 1267.92724609 C-761.45720522 1262.47638344 -758.13214189 1257.02110597 -754.8125 1251.5625 C-754.46092834 1250.98454681 -754.10935669 1250.40659363 -753.74713135 1249.81112671 C-747.4282014 1239.41649595 -741.21740218 1228.95944837 -735.02383423 1218.48977661 C-729.77472842 1209.62052526 -724.44634129 1200.81186054 -718.98242188 1192.07275391 C-714.12027955 1184.26381256 -709.43341532 1176.35431935 -704.75 1168.4375 C-698.67822045 1158.17546495 -692.57280572 1147.93648721 -686.375 1137.75 C-685.8539267 1136.89334244 -685.8539267 1136.89334244 -685.32232666 1136.01937866 C-682.53717324 1131.44166942 -679.74784212 1126.86651023 -676.95825195 1122.29150391 C-674.51182881 1118.27888858 -672.06716557 1114.26520814 -669.625 1110.25 C-669.27841339 1109.68024445 -668.93182678 1109.11048889 -668.57473755 1108.52346802 C-662.34047445 1098.26805553 -656.2077531 1087.95384135 -650.09240723 1077.62719727 C-643.40822044 1066.34220658 -636.63265304 1055.11672205 -629.78955078 1043.92724609 C-626.45720526 1038.47638351 -623.13211648 1033.02112137 -619.8125 1027.5625 C-619.45993134 1026.98288513 -619.10736267 1026.40327026 -618.74411011 1025.80609131 C-612.4944103 1015.52489401 -606.35111783 1005.18244137 -600.22598267 994.82669067 C-594.27511683 984.77070217 -588.21004965 974.79572445 -582.05615234 964.86230469 C-576.79163671 956.3412933 -571.66149197 947.74576968 -566.5625 939.125 C-560.55338676 928.96700386 -554.50949814 918.8328441 -548.375 908.75 C-548.02734589 908.17844177 -547.67969177 907.60688354 -547.32150269 907.01800537 C-544.53662426 902.44075371 -541.7475642 897.86605443 -538.95825195 893.29150391 C-536.51182881 889.27888858 -534.06716557 885.26520814 -531.625 881.25 C-531.27841339 880.68024445 -530.93182678 880.11048889 -530.57473755 879.52346802 C-524.34047445 869.26805553 -518.2077531 858.95384135 -512.09240723 848.62719727 C-505.40822044 837.34220658 -498.63265304 826.11672205 -491.78955078 814.92724609 C-488.45720522 809.47638344 -485.13214189 804.02110597 -481.8125 798.5625 C-481.28514252 797.69557022 -481.28514252 797.69557022 -480.74713135 796.81112671 C-474.4282014 786.41649595 -468.21740218 775.95944837 -462.02383423 765.48977661 C-456.77472842 756.62052526 -451.44634129 747.81186054 -445.98242188 739.07275391 C-441.12027955 731.26381256 -436.43341532 723.35431935 -431.75 715.4375 C-425.67822045 705.17546495 -419.57280572 694.93648721 -413.375 684.75 C-413.0276178 684.17889496 -412.6802356 683.60778992 -412.32232666 683.01937866 C-409.53717324 678.44166942 -406.74784212 673.86651023 -403.95825195 669.29150391 C-401.51182881 665.27888858 -399.06716557 661.26520814 -396.625 657.25 C-396.27841339 656.68024445 -395.93182678 656.11048889 -395.57473755 655.52346802 C-389.34047445 645.26805553 -383.2077531 634.95384135 -377.09240723 624.62719727 C-370.40822044 613.34220658 -363.63265304 602.11672205 -356.78955078 590.92724609 C-353.45720526 585.47638351 -350.13211648 580.02112137 -346.8125 574.5625 C-346.45993134 573.98288513 -346.10736267 573.40327026 -345.74411011 572.80609131 C-339.4944103 562.52489401 -333.35111783 552.18244137 -327.22598267 541.82669067 C-321.27511683 531.77070217 -315.21004965 521.79572445 -309.05615234 511.86230469 C-303.79163671 503.3412933 -298.66149197 494.74576968 -293.5625 486.125 C-287.55338676 475.96700386 -281.50949814 465.8328441 -275.375 455.75 C-275.02734589 455.17844177 -274.67969177 454.60688354 -274.32150269 454.01800537 C-271.53662426 449.44075371 -268.7475642 444.86605443 -265.95825195 440.29150391 C-263.51182881 436.27888858 -261.06716557 432.26520814 -258.625 428.25 C-258.27841339 427.68024445 -257.93182678 427.11048889 -257.57473755 426.52346802 C-251.34047445 416.26805553 -245.2077531 405.95384135 -239.09240723 395.62719727 C-232.40822044 384.34220658 -225.63265304 373.11672205 -218.78955078 361.92724609 C-215.45720522 356.47638344 -212.13214189 351.02110597 -208.8125 345.5625 C-208.46092834 344.98454681 -208.10935669 344.40659363 -207.74713135 343.81112671 C-201.4282014 333.41649595 -195.21740218 322.95944837 -189.02383423 312.48977661 C-183.77472842 303.62052526 -178.44634129 294.81186054 -172.98242188 286.07275391 C-168.12027955 278.26381256 -163.43341532 270.35431935 -158.75 262.4375 C-152.67822045 252.17546495 -146.57280572 241.93648721 -140.375 231.75 C-139.8539267 230.89334244 -139.8539267 230.89334244 -139.32232666 230.01937866 C-136.53717324 225.44166942 -133.74784212 220.86651023 -130.95825195 216.29150391 C-128.51182881 212.27888858 -126.06716557 208.26520814 -123.625 204.25 C-123.27841339 203.68024445 -122.93182678 203.11048889 -122.57473755 202.52346802 C-116.34047445 192.26805553 -110.2077531 181.95384135 -104.09240723 171.62719727 C-97.40822044 160.34220658 -90.63265304 149.11672205 -83.78955078 137.92724609 C-80.45720522 132.47638344 -77.13214189 127.02110597 -73.8125 121.5625 C-73.28514252 120.69557022 -73.28514252 120.69557022 -72.74713135 119.81112671 C-66.4282014 109.41649595 -60.21740218 98.95944837 -54.02383423 88.48977661 C-48.77774935 79.62562963 -43.45415421 70.82088826 -37.99121094 62.08813477 C-33.03577908 54.13250194 -28.26972928 46.06768246 -23.5 38 C-17.86663372 28.47339018 -12.2034632 18.97158905 -6.375 9.5625 C-5.83681641 8.69302734 -5.29863281 7.82355469 -4.74414062 6.92773438 C-1.13833779 1.13833779 -1.13833779 1.13833779 0 0 Z " fill="#8B8B8B" transform="translate(1628,0)"/>
<path d="M0 0 C0 345.18 0 690.36 0 1046 C-4.13908872 1044.34436451 -7.89482457 1042.50098851 -11.75 1040.3125 C-12.43553955 1039.92513672 -13.1210791 1039.53777344 -13.82739258 1039.13867188 C-21.25479434 1034.90786315 -28.56651479 1030.48479493 -35.88623047 1026.07128906 C-44.01480962 1021.17507796 -52.18292335 1016.35146994 -60.375 1011.5625 C-73.23650194 1004.04190011 -86.05950722 996.45869782 -98.87207031 988.85498047 C-103.68245029 986.00224342 -108.49712381 983.15679313 -113.3125 980.3125 C-114.20122803 979.7875293 -115.08995605 979.26255859 -116.00561523 978.72167969 C-117.78057085 977.67329226 -119.55555441 976.62495214 -121.33056641 975.57666016 C-125.88748494 972.88518587 -130.44370119 970.19252321 -135 967.5 C-136.83333009 966.41666119 -138.66666342 965.33332785 -140.5 964.25 C-151.5 957.75 -162.5 951.25 -173.5 944.75 C-174.40709717 944.2139917 -175.31419434 943.6779834 -176.2487793 943.12573242 C-178.0861946 942.03997961 -179.92359689 940.95420479 -181.76098633 939.8684082 C-186.28176042 937.19691439 -190.80274334 934.52577545 -195.32421875 931.85546875 C-205.96554957 925.57023827 -216.60101139 919.27518174 -227.23236084 912.9730835 C-237.59295994 906.83166666 -247.96004974 900.70131144 -258.33056641 894.57666016 C-262.88748494 891.88518587 -267.44370119 889.19252321 -272 886.5 C-273.83333009 885.41666119 -275.66666342 884.33332785 -277.5 883.25 C-310.5 863.75 -343.5 844.25 -376.5 824.75 C-377.40709717 824.2139917 -378.31419434 823.6779834 -379.2487793 823.12573242 C-381.0861946 822.03997961 -382.92359689 820.95420479 -384.76098633 819.8684082 C-389.28176042 817.19691439 -393.80274334 814.52577545 -398.32421875 811.85546875 C-408.96554957 805.57023827 -419.60101139 799.27518174 -430.23236084 792.9730835 C-440.59295994 786.83166666 -450.96004974 780.70131144 -461.33056641 774.57666016 C-465.88748494 771.88518587 -470.44370119 769.19252321 -475 766.5 C-476.83333009 765.41666119 -478.66666342 764.33332785 -480.5 763.25 C-513.5 743.75 -546.5 724.25 -579.5 704.75 C-580.40709717 704.2139917 -581.31419434 703.6779834 -582.2487793 703.12573242 C-584.0861946 702.03997961 -585.92359689 700.95420479 -587.76098633 699.8684082 C-592.28176042 697.19691439 -596.80274334 694.52577545 -601.32421875 691.85546875 C-611.96554957 685.57023827 -622.60101139 679.27518174 -633.23236084 672.9730835 C-643.59295994 666.83166666 -653.96004974 660.70131144 -664.33056641 654.57666016 C-668.88748494 651.88518587 -673.44370119 649.19252321 -678 646.5 C-679.83333009 645.41666119 -681.66666342 644.33332785 -683.5 643.25 C-716.5 623.75 -749.5 604.25 -782.5 584.75 C-783.40709717 584.2139917 -784.31419434 583.6779834 -785.2487793 583.12573242 C-787.0861946 582.03997961 -788.92359689 580.95420479 -790.76098633 579.8684082 C-795.28176042 577.19691439 -799.80274334 574.52577545 -804.32421875 571.85546875 C-814.96554957 565.57023827 -825.60101139 559.27518174 -836.23236084 552.9730835 C-846.59295994 546.83166666 -856.96004974 540.70131144 -867.33056641 534.57666016 C-871.88748494 531.88518587 -876.44370119 529.19252321 -881 526.5 C-882.83333009 525.41666119 -884.66666342 524.33332785 -886.5 523.25 C-904.83333333 512.41666667 -923.16666667 501.58333333 -941.5 490.75 C-942.8614917 489.94550415 -942.8614917 489.94550415 -944.25048828 489.12475586 C-946.08224587 488.04232408 -947.91395167 486.95980466 -949.74560547 485.87719727 C-954.35262529 483.15434617 -958.96055894 480.43306446 -963.5703125 477.71484375 C-968.13291835 475.02420945 -972.69111106 472.32619992 -977.24804688 469.62597656 C-980.10383041 467.93865236 -982.96581392 466.26216048 -985.828125 464.5859375 C-987.67726308 463.49509631 -989.52622807 462.40396164 -991.375 461.3125 C-992.24398926 460.80710693 -993.11297852 460.30171387 -994.00830078 459.78100586 C-995.19141846 459.07923218 -995.19141846 459.07923218 -996.3984375 458.36328125 C-997.09630371 457.95376221 -997.79416992 457.54424316 -998.51318359 457.12231445 C-999.24915771 456.5667688 -999.24915771 456.5667688 -1000 456 C-1000 455.34 -1000 454.68 -1000 454 C-998.93652344 453.55914063 -997.87304688 453.11828125 -996.77734375 452.6640625 C-984.53457423 447.5268381 -972.47835707 442.02708517 -960.4375 436.4375 C-947.71519991 430.53160761 -934.9591942 424.72113092 -922.125 419.0625 C-908.30119684 412.96541181 -894.5808639 406.66464276 -880.88677979 400.28201294 C-868.24962286 394.39506974 -855.55771189 388.65402134 -842.80126953 383.03076172 C-830.63332275 377.6626292 -818.55425474 372.11841315 -806.5 366.5 C-792.99263971 360.2043034 -779.43753537 354.04186269 -765.80126953 348.03076172 C-753.63332275 342.6626292 -741.55425474 337.11841315 -729.5 331.5 C-716.71917531 325.54293712 -703.90273946 319.68826982 -691 314 C-676.27754586 307.50791113 -661.66773729 300.79060298 -647.07958984 294.00268555 C-635.11475612 288.43616051 -623.12225865 282.93555273 -611.10205078 277.48974609 C-609.76464104 276.88380539 -608.42723869 276.27784837 -607.08984375 275.671875 C-606.09884674 275.22293381 -606.09884674 275.22293381 -605.08782959 274.7649231 C-600.19981558 272.54873153 -595.31917573 270.31676461 -590.44140625 268.078125 C-575.05273918 261.01765578 -559.63240295 254.04345618 -544.14486694 247.2024231 C-530.98600701 241.38403557 -517.9285702 235.36046862 -504.88787842 229.28256226 C-492.25035689 223.39542901 -479.55808784 217.65418707 -466.80126953 212.03076172 C-454.63332275 206.6626292 -442.55425474 201.11841315 -430.5 195.5 C-416.99263971 189.2043034 -403.43753537 183.04186269 -389.80126953 177.03076172 C-377.63332275 171.6626292 -365.55425474 166.11841315 -353.5 160.5 C-339.99263971 154.2043034 -326.43753537 148.04186269 -312.80126953 142.03076172 C-300.63332275 136.6626292 -288.55425474 131.11841315 -276.5 125.5 C-262.99263971 119.2043034 -249.43753537 113.04186269 -235.80126953 107.03076172 C-223.63332275 101.6626292 -211.55425474 96.11841315 -199.5 90.5 C-185.99263971 84.2043034 -172.43753537 78.04186269 -158.80126953 72.03076172 C-146.63332275 66.6626292 -134.55425474 61.11841315 -122.5 55.5 C-109.71917617 49.54293752 -96.90275855 43.68822613 -84 38 C-70.8507287 32.20181953 -57.7816601 26.2454327 -44.75 20.1875 C-43.44712036 19.58184708 -43.44712036 19.58184708 -42.11791992 18.96395874 C-38.73955872 17.39298902 -35.36150285 15.82136557 -31.98388672 14.24879456 C-24.83077042 10.91880024 -17.669703 7.60664297 -10.5 4.3125 C-9.5212793 3.86092529 -8.54255859 3.40935059 -7.53417969 2.9440918 C-6.23335449 2.34721558 -6.23335449 2.34721558 -4.90625 1.73828125 C-3.79733398 1.22841675 -3.79733398 1.22841675 -2.66601562 0.70825195 C-1 0 -1 0 0 0 Z " fill="#393939" transform="translate(1629,1204)"/>
<path d="M0 0 C6.13824601 2.046082 11.7899276 4.13794328 17.58203125 6.88671875 C18.38090256 7.2604512 19.17977386 7.63418365 20.00285339 8.01924133 C21.71595686 8.82084193 23.42811765 9.62445973 25.1394043 10.42993164 C29.73970049 12.59415903 34.34800622 14.7411562 38.95703125 16.88671875 C39.89201447 17.32208954 40.82699768 17.75746033 41.79031372 18.20602417 C50.48100988 22.24261401 59.23036522 26.1386592 68 30 C81.78346018 36.07408997 95.46159021 42.35506586 109.11376953 48.71826172 C121.0242352 54.26667067 132.97698582 59.70004816 145 65 C158.78277745 71.07568582 172.46155166 77.3550479 186.11376953 83.71826172 C198.0242352 89.26667067 209.97698582 94.70004816 222 100 C235.78277745 106.07568582 249.46155166 112.3550479 263.11376953 118.71826172 C275.0242352 124.26667067 286.97698582 129.70004816 299 135 C312.78277745 141.07568582 326.46155166 147.3550479 340.11376953 153.71826172 C352.0242352 159.26667067 363.97698582 164.70004816 376 170 C389.78277745 176.07568582 403.46155166 182.3550479 417.11376953 188.71826172 C429.0242352 194.26667067 440.97698582 199.70004816 453 205 C466.78277745 211.07568582 480.46155166 217.3550479 494.11376953 223.71826172 C506.0242352 229.26667067 517.97698582 234.70004816 530 240 C543.78277745 246.07568582 557.46155166 252.3550479 571.11376953 258.71826172 C583.0242352 264.26667067 594.97698582 269.70004816 607 275 C620.78277745 281.07568582 634.46155166 287.3550479 648.11376953 293.71826172 C660.0242352 299.26667067 671.97698582 304.70004816 684 310 C697.78277745 316.07568582 711.46155166 322.3550479 725.11376953 328.71826172 C737.0242352 334.26667067 748.97698582 339.70004816 761 345 C774.78277745 351.07568582 788.46155166 357.3550479 802.11376953 363.71826172 C814.0242352 369.26667067 825.97698582 374.70004816 838 380 C851.78277745 386.07568582 865.46155166 392.3550479 879.11376953 398.71826172 C891.02424089 404.26667332 902.97707786 409.6998308 915 415 C928.19223296 420.81640623 941.30154017 426.79632299 954.375 432.875 C955.24780609 433.28071228 956.12061218 433.68642456 957.01986694 434.10443115 C960.3964491 435.67423006 963.77282775 437.24446551 967.14891052 438.81533813 C973.86128672 441.93793136 980.57966292 445.04670097 987.3125 448.125 C988.17085449 448.52058105 989.02920898 448.91616211 989.91357422 449.32373047 C990.68072754 449.67322754 991.44788086 450.02272461 992.23828125 450.3828125 C992.87805908 450.67559082 993.51783691 450.96836914 994.17700195 451.27001953 C996.09405737 452.03766326 997.98776635 452.54516672 1000 453 C1000 453.66 1000 454.32 1000 455 C998.52853516 455.81791016 998.52853516 455.81791016 997.02734375 456.65234375 C989.6351679 460.77657496 982.29891692 464.9713528 975.0546875 469.3503418 C969.53620975 472.6853664 963.99049135 475.97279293 958.4375 479.25 C957.50341309 479.80139648 956.56932617 480.35279297 955.60693359 480.92089844 C953.69230193 482.05091999 951.77758775 483.18080174 949.86279297 484.31054688 C945.2406289 487.03827802 940.62038912 489.76926382 936 492.5 C934.16667639 493.58334979 932.33334305 494.66668311 930.5 495.75 C929.13875 496.554375 929.13875 496.554375 927.75 497.375 C831.49999998 554.25000001 831.49999998 554.25000001 828.7512207 555.87426758 C826.9138054 556.96002039 825.07640311 558.04579521 823.23901367 559.1315918 C818.71823958 561.80308561 814.19725666 564.47422455 809.67578125 567.14453125 C799.61244711 573.08837188 789.55389578 579.04020729 779.5 585 C768.56202683 591.48386001 757.61796327 597.95732388 746.66943359 604.42333984 C742.11251506 607.11481413 737.55629881 609.80747679 733 612.5 C731.16666991 613.58333881 729.33333658 614.66667215 727.5 615.75 C726.13875 616.554375 726.13875 616.554375 724.75 617.375 C628.50000006 674.24999996 628.50000006 674.24999996 625.7512207 675.87426758 C623.9138054 676.96002039 622.07640311 678.04579521 620.23901367 679.1315918 C615.71823958 681.80308561 611.19725666 684.47422455 606.67578125 687.14453125 C596.61244711 693.08837188 586.55389578 699.04020729 576.5 705 C565.56202683 711.48386001 554.61796327 717.95732388 543.66943359 724.42333984 C539.11251506 727.11481413 534.55629881 729.80747679 530 732.5 C528.16666991 733.58333881 526.33333658 734.66667215 524.5 735.75 C523.13875 736.554375 523.13875 736.554375 521.75 737.375 C425.49999995 794.25000003 425.49999995 794.25000003 422.7512207 795.87426758 C420.9138054 796.96002039 419.07640311 798.04579521 417.23901367 799.1315918 C412.71823958 801.80308561 408.19725666 804.47422455 403.67578125 807.14453125 C393.61244711 813.08837188 383.55389578 819.04020729 373.5 825 C362.56202683 831.48386001 351.61796327 837.95732388 340.66943359 844.42333984 C336.11251506 847.11481413 331.55629881 849.80747679 327 852.5 C325.16666991 853.58333881 323.33333658 854.66667215 321.5 855.75 C320.5925 856.28625 319.685 856.8225 318.75 857.375 C222.50000004 914.24999998 222.50000004 914.24999998 219.7512207 915.87426758 C217.9138054 916.96002039 216.07640311 918.04579521 214.23901367 919.1315918 C209.71823958 921.80308561 205.19725666 924.47422455 200.67578125 927.14453125 C190.61244711 933.08837188 180.55389578 939.04020729 170.5 945 C159.56202683 951.48386001 148.61796327 957.95732388 137.66943359 964.42333984 C133.11251506 967.11481413 128.55629881 969.80747679 124 972.5 C122.16666991 973.58333881 120.33333658 974.66667215 118.5 975.75 C117.13875 976.554375 117.13875 976.554375 115.75 977.375 C91 992 66.25 1006.625 41.5 1021.25 C40.59096924 1021.7872168 39.68193848 1022.32443359 38.74536133 1022.87792969 C36.92771089 1023.95187095 35.1098428 1025.02544392 33.29174805 1026.09863281 C28.46653803 1028.94754848 23.64621712 1031.8043637 18.83203125 1034.671875 C17.82462891 1035.27064453 16.81722656 1035.86941406 15.77929688 1036.48632812 C13.84040649 1037.63894038 11.90284646 1038.79379426 9.96679688 1039.95117188 C9.09732422 1040.46744141 8.22785156 1040.98371094 7.33203125 1041.515625 C6.56608643 1041.97227539 5.8001416 1042.42892578 5.01098633 1042.89941406 C3 1044 3 1044 0 1045 C0 700.15 0 355.3 0 0 Z " fill="#141414" transform="translate(1629,1205)"/>
<path d="M0 0 C0.33 0.66 0.66 1.32 1 2 C-5.77958361 11.74210363 -12.57861169 21.46542427 -19.5625 31.0625 C-24.02592642 37.19945684 -28.36321369 43.40893049 -32.625 49.6875 C-36.93383041 56.03455099 -41.34370698 62.28161058 -45.91113281 68.44482422 C-49.81886334 73.72435747 -53.60720266 79.08245089 -57.38134766 84.45800781 C-61.01952921 89.63205092 -64.71769353 94.75942932 -68.4375 99.875 C-72.94112138 106.07522799 -77.32107199 112.34715397 -81.625 118.6875 C-85.93328449 125.0337122 -90.34336733 131.27931683 -94.90893555 137.44262695 C-100.40374203 144.86882063 -105.69147749 152.44015641 -111 160 C-117.0735802 168.64209887 -123.17344155 177.26162548 -129.375 185.8125 C-134.58683683 192.99938158 -139.69307791 200.25502775 -144.76904297 207.53833008 C-149.14854751 213.81149404 -153.61022346 220.02040505 -158.10546875 226.2109375 C-162.7352015 232.6006413 -167.25695406 239.06257904 -171.76733398 245.53686523 C-175.64182201 251.088202 -179.57948317 256.5886333 -183.5625 262.0625 C-188.01031557 268.17580311 -192.32345543 274.36528733 -196.5625 280.625 C-201.07228834 287.28117989 -205.75597562 293.75913755 -210.62353516 300.15722656 C-214.51021771 305.28739141 -218.17474987 310.54295748 -221.79003906 315.86669922 C-225.22833606 320.91631501 -228.77831762 325.87469999 -232.375 330.8125 C-236.88635589 337.00875564 -241.26603269 343.27800446 -245.5625 349.625 C-250.07215228 356.28126841 -254.75598082 362.75914439 -259.62353516 369.15722656 C-263.51021771 374.28739141 -267.17474987 379.54295748 -270.79003906 384.86669922 C-274.22833834 389.91631836 -277.77841149 394.87462896 -281.375 399.8125 C-285.90193162 406.03240858 -290.30567697 412.32174293 -294.625 418.6875 C-298.93370399 425.03463392 -303.34371059 431.28161545 -307.91113281 437.44482422 C-311.81886334 442.72435747 -315.60720266 448.08245089 -319.38134766 453.45800781 C-323.01952921 458.63205092 -326.71769353 463.75942932 -330.4375 468.875 C-334.94112138 475.07522799 -339.32107199 481.34715397 -343.625 487.6875 C-347.93328449 494.0337122 -352.34336733 500.27931683 -356.90893555 506.44262695 C-362.40374203 513.86882063 -367.69147749 521.44015641 -373 529 C-379.0735802 537.64209887 -385.17344155 546.26162548 -391.375 554.8125 C-396.58683683 561.99938158 -401.69307791 569.25502775 -406.76904297 576.53833008 C-411.14854751 582.81149404 -415.61022346 589.02040505 -420.10546875 595.2109375 C-424.7352015 601.6006413 -429.25695406 608.06257904 -433.76733398 614.53686523 C-437.64182201 620.088202 -441.57948317 625.5886333 -445.5625 631.0625 C-450.01031557 637.17580311 -454.32345543 643.36528733 -458.5625 649.625 C-463.07228834 656.28117989 -467.75597562 662.75913755 -472.62353516 669.15722656 C-476.51021771 674.28739141 -480.17474987 679.54295748 -483.79003906 684.86669922 C-487.22833834 689.91631836 -490.77841149 694.87462896 -494.375 699.8125 C-498.90193162 706.03240858 -503.30567697 712.32174293 -507.625 718.6875 C-511.93370399 725.03463392 -516.34371059 731.28161545 -520.91113281 737.44482422 C-524.81886334 742.72435747 -528.60720266 748.08245089 -532.38134766 753.45800781 C-536.01952921 758.63205092 -539.71769353 763.75942932 -543.4375 768.875 C-547.94112138 775.07522799 -552.32107199 781.34715397 -556.625 787.6875 C-560.933847 794.0345408 -565.34370633 800.2816097 -569.91113281 806.44482422 C-573.81886334 811.72435747 -577.60720266 817.08245089 -581.38134766 822.45800781 C-585.01952921 827.63205092 -588.71769353 832.75942932 -592.4375 837.875 C-596.94112138 844.07522799 -601.32107199 850.34715397 -605.625 856.6875 C-609.93328449 863.0337122 -614.34336733 869.27931683 -618.90893555 875.44262695 C-624.40374203 882.86882063 -629.69147749 890.44015641 -635 898 C-641.0735802 906.64209887 -647.17344155 915.26162548 -653.375 923.8125 C-658.58683683 930.99938158 -663.69307791 938.25502775 -668.76904297 945.53833008 C-673.14854751 951.81149404 -677.61022346 958.02040505 -682.10546875 964.2109375 C-686.7352015 970.6006413 -691.25695406 977.06257904 -695.76733398 983.53686523 C-699.64182201 989.088202 -703.57948317 994.5886333 -707.5625 1000.0625 C-712.01031557 1006.17580311 -716.32345543 1012.36528733 -720.5625 1018.625 C-725.07228834 1025.28117989 -729.75597562 1031.75913755 -734.62353516 1038.15722656 C-738.51021771 1043.28739141 -742.17474987 1048.54295748 -745.79003906 1053.86669922 C-749.22833834 1058.91631836 -752.77841149 1063.87462896 -756.375 1068.8125 C-760.90193162 1075.03240858 -765.30567697 1081.32174293 -769.625 1087.6875 C-773.93370399 1094.03463392 -778.34371059 1100.28161545 -782.91113281 1106.44482422 C-786.81886334 1111.72435747 -790.60720266 1117.08245089 -794.38134766 1122.45800781 C-798.01952921 1127.63205092 -801.71769353 1132.75942932 -805.4375 1137.875 C-809.94112138 1144.07522799 -814.32107199 1150.34715397 -818.625 1156.6875 C-822.93328449 1163.0337122 -827.34336733 1169.27931683 -831.90893555 1175.44262695 C-837.40374203 1182.86882063 -842.69147749 1190.44015641 -848 1198 C-854.0735802 1206.64209887 -860.17344155 1215.26162548 -866.375 1223.8125 C-871.58683683 1230.99938158 -876.69307791 1238.25502775 -881.76904297 1245.53833008 C-886.14854751 1251.81149404 -890.61022346 1258.02040505 -895.10546875 1264.2109375 C-899.7352015 1270.6006413 -904.25695406 1277.06257904 -908.76733398 1283.53686523 C-912.64182201 1289.088202 -916.57948317 1294.5886333 -920.5625 1300.0625 C-925.01031557 1306.17580311 -929.32345543 1312.36528733 -933.5625 1318.625 C-938.07228834 1325.28117989 -942.75597562 1331.75913755 -947.62353516 1338.15722656 C-951.51021771 1343.28739141 -955.17474987 1348.54295748 -958.79003906 1353.86669922 C-962.22833685 1358.91631618 -965.77834731 1363.87467714 -969.375 1368.8125 C-973.94694516 1375.09271178 -978.38894954 1381.44664019 -982.75 1387.875 C-992.82060434 1402.70175431 -992.82060434 1402.70175431 -998 1409 C-998.33 1409 -998.66 1409 -999 1409 C-999.42848944 1331.13111731 -999.82597627 1253.26209249 -1000.05857849 1175.39234924 C-1000.06202992 1174.23984505 -1000.06548134 1173.08734086 -1000.06903736 1171.8999123 C-1000.14386016 1146.85285628 -1000.21311469 1121.80578775 -1000.27663324 1096.75870058 C-1000.30781664 1084.47560556 -1000.34023048 1072.19251393 -1000.37329102 1059.90942383 C-1000.37655999 1058.68710905 -1000.37982897 1057.46479427 -1000.383197 1056.20543965 C-1000.48973032 1016.58682726 -1000.67751102 976.9691063 -1000.90743052 937.35103397 C-1001.14327515 896.63803495 -1001.29714238 855.92552923 -1001.34787475 815.21185863 C-1001.35507862 809.46131191 -1001.36321953 803.71076687 -1001.37193108 797.96022224 C-1001.37361665 796.82843335 -1001.37530223 795.69664445 -1001.37703888 794.53055892 C-1001.40658197 776.31179548 -1001.52252905 758.0945574 -1001.67080085 739.87641602 C-1001.81802444 721.56045091 -1001.87419111 703.24599771 -1001.83753444 684.92946165 C-1001.81851769 674.04591355 -1001.86918512 663.1678986 -1002.01993858 652.28535013 C-1002.11381114 645.01186743 -1002.11652627 637.74199949 -1002.04579534 630.46826542 C-1002.00807836 626.32307239 -1002.00934382 622.18831337 -1002.12207956 618.04424935 C-1002.73441338 594.17685034 -1002.73441338 594.17685034 -996.53065185 587.23809429 C-990.54351595 582.42576982 -984.00150078 579.1821164 -976.93471956 576.25282419 C-973.07401218 574.60469819 -969.65478035 572.55944147 -966.09375 570.34375 C-963.89644479 569.06145165 -961.6985404 567.78017942 -959.5 566.5 C-950.46437965 561.22482651 -941.46184804 555.89994979 -932.5 550.5 C-921.63204035 543.95286812 -910.69784052 537.52435441 -899.74594116 531.11920166 C-899.14528839 530.76791199 -898.54463562 530.41662231 -897.92578125 530.0546875 C-897.03338242 529.53282867 -897.03338242 529.53282867 -896.12295532 529.00042725 C-890.7387125 525.85033286 -885.36759483 522.67835222 -880 519.5 C-874.03336991 515.96693676 -868.06006667 512.44572896 -862.07421875 508.9453125 C-861.47356598 508.59402283 -860.87291321 508.24273315 -860.25405884 507.88079834 C-859.64686005 507.52568176 -859.03966125 507.17056519 -858.4140625 506.8046875 C-848.07561131 500.75807889 -837.75937145 494.68034425 -827.5 488.5 C-816.63196478 481.95299083 -805.69784246 475.52435555 -794.74594116 469.11920166 C-794.14528839 468.76791199 -793.54463562 468.41662231 -792.92578125 468.0546875 C-792.03338242 467.53282867 -792.03338242 467.53282867 -791.12295532 467.00042725 C-785.7387125 463.85033286 -780.36759483 460.67835222 -775 457.5 C-769.03336991 453.96693676 -763.06006667 450.44572896 -757.07421875 446.9453125 C-756.47356598 446.59402283 -755.87291321 446.24273315 -755.25405884 445.88079834 C-754.64686005 445.52568176 -754.03966125 445.17056519 -753.4140625 444.8046875 C-743.07561131 438.75807889 -732.75937145 432.68034425 -722.5 426.5 C-711.63196478 419.95299083 -700.69784246 413.52435555 -689.74594116 407.11920166 C-689.14528839 406.76791199 -688.54463562 406.41662231 -687.92578125 406.0546875 C-687.03338242 405.53282867 -687.03338242 405.53282867 -686.12295532 405.00042725 C-680.7387125 401.85033286 -675.36759483 398.67835222 -670 395.5 C-664.03336991 391.96693676 -658.06006667 388.44572896 -652.07421875 384.9453125 C-651.47356598 384.59402283 -650.87291321 384.24273315 -650.25405884 383.88079834 C-649.64686005 383.52568176 -649.03966125 383.17056519 -648.4140625 382.8046875 C-638.07561131 376.75807889 -627.75937145 370.68034425 -617.5 364.5 C-605.44404098 357.23737408 -593.30382404 350.12355214 -581.15467834 343.01855469 C-575.61496347 339.77754124 -570.08667404 336.51741376 -564.5625 333.25 C-563.67675293 332.72615723 -562.79100586 332.20231445 -561.87841797 331.66259766 C-559.25203064 330.10881705 -556.62595194 328.55451632 -554 327 C-550.47957674 324.91597274 -546.95880053 322.83254467 -543.4375 320.75 C-542.54530762 320.22229004 -541.65311523 319.69458008 -540.73388672 319.15087891 C-535.51178711 316.06530117 -530.28280379 312.99173496 -525.046875 309.9296875 C-513.49753196 303.17464772 -501.96111326 296.4042851 -490.5 289.5 C-479.63196478 282.95299083 -468.69784246 276.52435555 -457.74594116 270.11920166 C-457.14528839 269.76791199 -456.54463562 269.41662231 -455.92578125 269.0546875 C-455.03338242 268.53282867 -455.03338242 268.53282867 -454.12295532 268.00042725 C-448.7387125 264.85033286 -443.36759483 261.67835222 -438 258.5 C-432.03336991 254.96693676 -426.06006667 251.44572896 -420.07421875 247.9453125 C-419.47356598 247.59402283 -418.87291321 247.24273315 -418.25405884 246.88079834 C-417.64686005 246.52568176 -417.03966125 246.17056519 -416.4140625 245.8046875 C-406.07561131 239.75807889 -395.75937145 233.68034425 -385.5 227.5 C-374.63196478 220.95299083 -363.69784246 214.52435555 -352.74594116 208.11920166 C-352.14528839 207.76791199 -351.54463562 207.41662231 -350.92578125 207.0546875 C-350.33084869 206.70678162 -349.73591614 206.35887573 -349.12295532 206.00042725 C-343.7387125 202.85033286 -338.36759483 199.67835222 -333 196.5 C-327.03336991 192.96693676 -321.06006667 189.44572896 -315.07421875 185.9453125 C-314.47356598 185.59402283 -313.87291321 185.24273315 -313.25405884 184.88079834 C-312.64686005 184.52568176 -312.03966125 184.17056519 -311.4140625 183.8046875 C-301.07561131 177.75807889 -290.75937145 171.68034425 -280.5 165.5 C-269.63196478 158.95299083 -258.69784246 152.52435555 -247.74594116 146.11920166 C-247.14528839 145.76791199 -246.54463562 145.41662231 -245.92578125 145.0546875 C-245.33084869 144.70678162 -244.73591614 144.35887573 -244.12295532 144.00042725 C-238.7387125 140.85033286 -233.36759483 137.67835222 -228 134.5 C-222.03336991 130.96693676 -216.06006667 127.44572896 -210.07421875 123.9453125 C-209.47356598 123.59402283 -208.87291321 123.24273315 -208.25405884 122.88079834 C-207.64686005 122.52568176 -207.03966125 122.17056519 -206.4140625 121.8046875 C-196.07561131 115.75807889 -185.75937145 109.68034425 -175.5 103.5 C-164.63196478 96.95299083 -153.69784246 90.52435555 -142.74594116 84.11920166 C-142.14528839 83.76791199 -141.54463562 83.41662231 -140.92578125 83.0546875 C-140.33084869 82.70678162 -139.73591614 82.35887573 -139.12295532 82.00042725 C-133.7387125 78.85033286 -128.36759483 75.67835222 -123 72.5 C-117.03336991 68.96693676 -111.06006667 65.44572896 -105.07421875 61.9453125 C-104.47356598 61.59402283 -103.87291321 61.24273315 -103.25405884 60.88079834 C-102.64686005 60.52568176 -102.03966125 60.17056519 -101.4140625 59.8046875 C-91.07561131 53.75807889 -80.75937145 47.68034425 -70.5 41.5 C-59.65501292 34.96687526 -48.74444222 28.55125986 -37.81542969 22.16026306 C-37.22020508 21.81218094 -36.62498047 21.46409882 -36.01171875 21.10546875 C-35.42132812 20.76024673 -34.8309375 20.41502472 -34.22265625 20.05934143 C-27.45501214 16.09980938 -20.70686059 12.10735061 -13.9621582 8.10888672 C-9.33019267 5.36546739 -4.68230158 2.65666976 0 0 Z " fill="#3B3B3A" transform="translate(2628,1848)"/>
</svg>
