<?xml version="1.0" encoding="UTF-8"?>
<svg version="1.1" xmlns="http://www.w3.org/2000/svg" width="400" height="400">
<path d="M0 0 C132 0 264 0 400 0 C400 132 400 264 400 400 C268 400 136 400 0 400 C0 268 0 136 0 0 Z " fill="#000000" transform="translate(0,0)"/>
<path d="M0 0 C7.37227627 5.57016429 12.31865606 12.20258057 14.8125 21.125 C14.99667907 23.24569047 15.12052893 25.37238047 15.1875 27.5 C15.68120668 34.83865697 17.07175633 39.57547101 22.5 44.625 C26.8652263 46.60170625 30.10041215 47.00252497 34.8125 46.125 C37.71452444 45.01888379 40.46516395 43.73645579 43.25390625 42.37109375 C52.31740223 37.95696364 61.0252927 38.12476429 70.4453125 41.19140625 C72.6971791 42.07951865 74.70727228 43.12461046 76.8125 44.3125 C81.39183434 46.71340606 85.74398218 46.958414 90.8125 46.125 C95.68075818 43.78102384 98.50223478 41.00222658 100.8125 36.125 C101.17198817 32.91992476 101.32321445 29.72844915 101.48828125 26.5078125 C102.39760853 17.02013264 106.65401693 8.74767322 113.73046875 2.40625 C120.49057773 -2.92861357 126.55463044 -5.43743815 135.125 -5.3125 C135.87338135 -5.30275146 136.6217627 -5.29300293 137.39282227 -5.28295898 C147.66329303 -4.95502426 154.18245538 -1.39690572 161.609375 5.6796875 C168.58061486 13.41726933 170.12968445 20.63884503 170.02734375 30.8046875 C169.43798242 39.9129989 165.2524703 48.23778896 158.5 54.375 C149.60695479 61.50108645 140.19040925 63.25620985 128.94189453 62.47265625 C124.13483505 61.68783021 120.13427683 59.05085151 115.94140625 56.69921875 C111.73838908 54.58459213 108.38383281 53.94682144 103.8125 55.125 C98.90941074 57.53028907 96.46322512 60.4052824 93.8125 65.125 C93.3707001 67.90442471 93.08962801 70.46193134 92.9375 73.25 C92.14916168 82.40860719 89.40698286 89.60622155 83.625 96.875 C81.85869097 98.28804722 80.05229599 99.65373891 78.1953125 100.9453125 C69.48082265 106.77288441 69.48082265 106.77288441 65.44921875 116.09375 C65.16551007 120.3088504 65.94920825 123.84224311 68.29296875 127.453125 C73.00870737 132.64164975 79.63066152 136.00283987 86.640625 136.36328125 C91.32628096 135.84920748 95.05610414 133.77684849 98.453125 130.58203125 C100.56256365 126.76928151 100.7067742 122.78536073 101.1875 118.5 C102.50834319 108.44411269 104.61920414 99.76821286 112.8125 93.125 C113.4725 93.125 114.1325 93.125 114.8125 93.125 C115.1425 92.135 115.4725 91.145 115.8125 90.125 C123.45747927 83.971724 132.32035825 83.16498566 141.8125 84.125 C152.85092915 86.71190217 160.26336824 92.27009725 166.40234375 101.6953125 C170.85279542 109.36340373 171.01702116 118.57843252 169.16015625 127.12890625 C166.08917345 136.60545832 159.52666708 144.23884203 150.8125 149.125 C140.37765505 152.76652231 129.37699936 152.76487717 119.375 148.125 C118.25222656 147.58101562 117.12945312 147.03703125 115.97265625 146.4765625 C111.4749131 144.55292946 107.59664026 144.09416315 102.8125 145.125 C98.26313473 147.35832477 96.0558419 149.6383162 93.8125 154.125 C93.38523138 157.06759726 93.38523138 157.06759726 93.375 160.1875 C92.72356873 171.06517311 89.66788034 180.34663319 81.8125 188.125 C72.18111511 195.92742852 62.81780998 197.05482303 50.8125 196.125 C41.43199155 194.07454855 34.03748276 187.859275 28.83984375 179.9140625 C24.9412675 173.1249069 24.42570164 167.23562785 24.21875 159.4921875 C23.61615937 154.49763823 21.99652085 151.22021928 18.3125 147.8125 C13.73718287 144.72416094 9.1743674 144.2062329 3.8125 145.125 C1.12236323 146.15480094 -1.46286728 147.38689102 -4.0625 148.625 C-10.643252 151.72681906 -15.82577343 153.22502811 -23.1875 152.125 C-24.22583984 151.99544922 -24.22583984 151.99544922 -25.28515625 151.86328125 C-34.86508326 150.09204226 -42.60829605 143.85484682 -48.1875 136.125 C-52.92755484 128.27939198 -54.38055738 119.57152015 -52.72265625 110.61328125 C-50.18567162 100.81061281 -44.15046958 94.14111129 -36.1875 88.125 C-28.42740251 83.56023677 -19.51727399 82.94130217 -10.72265625 84.5859375 C-0.60612004 87.60845271 6.70100377 93.80145291 12.0625 102.75 C14.51015394 107.47047545 14.88405442 110.96036308 15.0625 116.25 C15.536361 122.72367022 16.94161796 127.85223095 20.8125 133.125 C24.43942656 135.86534451 27.94437367 136.78598271 32.52734375 136.609375 C38.63989311 135.31372351 44.16919731 131.8465552 48.4375 127.375 C50.55706438 123.90662193 50.99638433 121.88412356 51.0625 117.8125 C51.08828125 116.86761719 51.1140625 115.92273438 51.140625 114.94921875 C50.7432941 111.52933494 49.92020395 109.84447395 47.8125 107.125 C45.12787654 105.13481661 45.12787654 105.13481661 42.0625 103.375 C32.7140811 97.33465687 27.42103899 89.99879738 24.8125 79.125 C24.59886763 77.0668345 24.43217874 75.00325919 24.3125 72.9375 C23.98885154 67.62828811 23.30068171 63.29478044 19.8125 59.125 C16.25467563 56.40249092 12.82713649 55.29410608 8.4375 54.5625 C4.17293285 55.22424318 1.089773 56.75737056 -2.66015625 58.8359375 C-11.2492471 63.21677209 -21.4168601 63.91271532 -30.6171875 61.0625 C-39.29120634 57.00138176 -46.51020057 51.07543234 -50.4453125 42.1953125 C-53.92090272 32.50024506 -54.09275207 23.72663478 -50.1875 14.125 C-45.61935784 5.51474417 -39.43816624 -0.80211067 -30.19921875 -4.18359375 C-19.5170393 -6.63592288 -9.42164035 -5.54214138 0 0 Z " fill="#FD921E" transform="translate(141.1875,125.875)"/>
<path d="M0 0 C7.51032429 4.96650477 7.51032429 4.96650477 9.9375 7.28125 C9.9375 7.94125 9.9375 8.60125 9.9375 9.28125 C10.5975 9.28125 11.2575 9.28125 11.9375 9.28125 C12.92164433 11.19536557 13.89963349 13.1126467 14.875 15.03125 C15.42027344 16.09859375 15.96554688 17.1659375 16.52734375 18.265625 C20.33520388 26.40874971 19.84975494 34.58091639 16.875 42.96875 C12.68481747 52.84728087 6.57083748 58.61787557 -3.0625 63.28125 C-11.29487901 66.17227818 -23.10823253 65.32213145 -30.88671875 61.609375 C-39.64634896 56.26238349 -45.91270169 49.06561776 -48.5546875 39.08984375 C-50.19226271 30.03279318 -49.74640317 22.26665436 -45.0625 14.28125 C-44.485 13.25 -43.9075 12.21875 -43.3125 11.15625 C-33.17881173 -1.79235168 -15.40101647 -8.42243088 0 0 Z " fill="#FD921E" transform="translate(215.0625,78.71875)"/>
<path d="M0 0 C8.22902843 4.11451422 12.85951348 9.87237832 17 18 C18.09010685 21.37139007 18.13103086 24.59841463 18.25 28.125 C18.72359986 34.59510273 20.12526221 39.73245107 24 45 C28.36681882 48.2023338 32.73213764 48.54587393 38 49 C37.67 49.99 37.34 50.98 37 52 C35.0509375 51.7215625 35.0509375 51.7215625 33.0625 51.4375 C30.91424457 51.1018371 30.91424457 51.1018371 29 51 C28.67 51.33 28.34 51.66 28 52 C26.00041636 52.04080783 23.99954746 52.04254356 22 52 C22 52.66 22 53.32 22 54 C22.99 54 23.98 54 25 54 C25 55.65 25 57.3 25 59 C25.99 59.495 25.99 59.495 27 60 C29.20695378 64.42446714 30.38851138 69.10809102 31 74 C31.33 74 31.66 74 32 74 C32.66 79.61 33.32 85.22 34 91 C34.99 91 35.98 91 37 91 C37.495 94.465 37.495 94.465 38 98 C32.36480411 92.99093699 28.30445279 86.53860173 27.7890625 78.85546875 C27.68004643 76.41818082 27.57584732 73.98067248 27.4765625 71.54296875 C26.79533935 66.4784655 25.2502743 63.15650373 21.5 59.6875 C16.92468287 56.59916094 12.3618674 56.0812329 7 57 C4.30986323 58.02980094 1.72463272 59.26189102 -0.875 60.5 C-10.28588707 64.93579531 -18.05622579 65.2543261 -28 62 C-28.66 61.34 -29.32 60.68 -30 60 C-23.4 60 -16.8 60 -10 60 C-10 59.34 -10 58.68 -10 58 C-8.4221875 58.1546875 -8.4221875 58.1546875 -6.8125 58.3125 C-2.04023664 57.92133087 -1.19932903 56.36771477 2 53 C4.75 52.625 4.75 52.625 7 53 C7.33 53.33 7.66 53.66 8 54 C8.886875 53.690625 9.77375 53.38125 10.6875 53.0625 C14 52 14 52 16.625 51.5 C19.04145232 51.10054334 19.04145232 51.10054334 21.1875 49.875 C21.785625 49.58625 22.38375 49.2975 23 49 C23.99 49.495 23.99 49.495 25 50 C24.67 49.34 24.34 48.68 24 48 C23.01 47.67 22.02 47.34 21 47 C21 46.34 21 45.68 21 45 C20.34 45 19.68 45 19 45 C18.67 44.01 18.34 43.02 18 42 C16.35 42 14.7 42 13 42 C13.05647705 41.29915283 13.1129541 40.59830566 13.17114258 39.8762207 C13.41240532 36.68970682 13.61282037 33.50187836 13.8125 30.3125 C13.90208984 29.20970703 13.99167969 28.10691406 14.08398438 26.97070312 C14.58926721 21.34072959 14.58926721 21.34072959 12.93115234 16.11474609 C11.48045395 14.54152979 11.48045395 14.54152979 9 13 C8.67 13 8.34 13 8 13 C8 11.35 8 9.7 8 8 C3.545 7.01 3.545 7.01 -1 6 C-1 5.34 -1 4.68 -1 4 C-0.34 4 0.32 4 1 4 C0.67 2.68 0.34 1.36 0 0 Z M35 52 C36.485 52.99 36.485 52.99 38 54 C36.68 54.33 35.36 54.66 34 55 C34.33 54.01 34.66 53.02 35 52 Z " fill="#F79324" transform="translate(138,214)"/>
<path d="M0 0 C0.66 0.33 1.32 0.66 2 1 C1.67 1.66 1.34 2.32 1 3 C0.34 3 -0.32 3 -1 3 C-1 3.99 -1 4.98 -1 6 C-2.32 6.33 -3.64 6.66 -5 7 C-5 7.99 -5 8.98 -5 10 C-5.99 10.33 -6.98 10.66 -8 11 C-8.73759428 12.86896292 -8.73759428 12.86896292 -9.0625 15.125 C-9.83360354 19.17491356 -10.82337256 23.04989358 -12 27 C-13.65 27.33 -15.3 27.66 -17 28 C-17.01417969 28.67804688 -17.02835938 29.35609375 -17.04296875 30.0546875 C-17.37895141 36.61088965 -18.71204158 41.2861926 -21.94140625 47.00390625 C-23.15617436 48.91791256 -23.15617436 48.91791256 -23 51 C-22.34 51.474375 -21.68 51.94875 -21 52.4375 C-20.34 52.953125 -19.68 53.46875 -19 54 C-19 54.99 -19 55.98 -19 57 C-17.96359375 56.91621094 -16.9271875 56.83242188 -15.859375 56.74609375 C-14.48960868 56.64289218 -13.11981553 56.54004626 -11.75 56.4375 C-10.72712891 56.35338867 -10.72712891 56.35338867 -9.68359375 56.26757812 C-6.2579419 56.01813746 -3.27298823 55.86120255 0 57 C0 58.32 0 59.64 0 61 C1.32 61 2.64 61 4 61 C4 61.99 4 62.98 4 64 C0.7662661 62.97466974 -2.20934998 61.89532501 -5.25 60.375 C-9.98837081 58.63759737 -14.00833476 58.25866358 -19 59 C-23.54936527 61.23332477 -25.7566581 63.5133162 -28 68 C-28.42726862 70.94259726 -28.42726862 70.94259726 -28.4375 74.0625 C-29.08361091 84.85133317 -32.11607876 94.29900037 -40 102 C-41.485 102.495 -41.485 102.495 -43 103 C-42.67 101.68 -42.34 100.36 -42 99 C-41.01 99 -40.02 99 -39 99 C-37.0311624 95.40687138 -36.3058952 92.0191867 -35.5625 88.0234375 C-35 86 -35 86 -33 84 C-32.50183609 80.67521716 -32.1647416 77.37673121 -31.87695312 74.02929688 C-31.41930869 69.57241731 -30.44862944 66.71631225 -28 63 C-27.7763932 60.0745356 -27.7763932 60.0745356 -29 58 C-31.02463255 57.34786708 -31.02463255 57.34786708 -33 57 C-33.33 55.68 -33.66 54.36 -34 53 C-34.61746094 52.92523438 -35.23492187 52.85046875 -35.87109375 52.7734375 C-42.60146525 51.72853964 -47.87441643 49.58850648 -53 45 C-53.495 43.515 -53.495 43.515 -54 42 C-54.66 42 -55.32 42 -56 42 C-55.67 40.68 -55.34 39.36 -55 38 C-54.60039062 38.75796875 -54.20078125 39.5159375 -53.7890625 40.296875 C-50.51496708 45.24376153 -45.22500682 47.99218537 -39.625 49.7421875 C-34.61583821 50.59444072 -31.17145938 49.66956374 -26.7265625 47.30078125 C-23.03298939 44.51806667 -21.87184065 42.10984801 -21.2265625 37.5859375 C-21.02017467 35.84964568 -20.81992337 34.11261622 -20.625 32.375 C-19.30415681 22.31911269 -17.19329586 13.64321286 -9 7 C-8.34 7 -7.68 7 -7 7 C-6.67 6.01 -6.34 5.02 -6 4 C-4.04402816 2.60287726 -2.04563599 1.26220093 0 0 Z " fill="#F99320" transform="translate(263,212)"/>
<path d="M0 0 C9.39380388 3.28633075 16.695439 10.63685468 21.16796875 19.375 C24.47400551 27.41712662 24.12731881 37.30441462 20.99609375 45.34765625 C18.6733903 50.21339865 16.54694376 54.39188124 12.0078125 57.41796875 C12.56510163 54.074234 13.35955139 51.38483876 15.0078125 48.41796875 C15.9978125 48.41796875 16.9878125 48.41796875 18.0078125 48.41796875 C18.1521875 47.63421875 18.2965625 46.85046875 18.4453125 46.04296875 C19.0078125 43.41796875 19.0078125 43.41796875 20.0078125 41.41796875 C20.1047656 39.06543035 20.137603 36.70999925 20.1328125 34.35546875 C20.13539063 33.08574219 20.13796875 31.81601563 20.140625 30.5078125 C20.36216834 27.54696174 20.36216834 27.54696174 19.0078125 26.41796875 C18.47293768 23.90990026 18.04375794 21.38988954 17.60546875 18.86328125 C17.097864 16.18331106 17.097864 16.18331106 15.0078125 13.41796875 C14.3478125 13.10859375 13.6878125 12.79921875 13.0078125 12.48046875 C11.0078125 11.41796875 11.0078125 11.41796875 10.1953125 9.48046875 C8.35718963 6.28793955 5.38252974 5.43917577 2.0078125 4.41796875 C-0.31913714 4.04265429 -2.65195435 3.69879673 -4.9921875 3.41796875 C-5.3221875 3.08796875 -5.6521875 2.75796875 -5.9921875 2.41796875 C-8.85096659 2.18095636 -11.69102047 1.99577693 -14.5546875 1.85546875 C-15.36099609 1.81228516 -16.16730469 1.76910156 -16.99804688 1.72460938 C-18.99587555 1.61821613 -20.9940082 1.51755987 -22.9921875 1.41796875 C-16.99382754 -2.58093789 -6.95275034 -1.35242794 0 0 Z " fill="#DB8E3C" transform="translate(287.9921875,121.58203125)"/>
<path d="M0 0 C0.33 0 0.66 0 1 0 C1.06058594 0.94101563 1.12117188 1.88203125 1.18359375 2.8515625 C1.30927734 4.71941406 1.30927734 4.71941406 1.4375 6.625 C1.51871094 7.85476562 1.59992188 9.08453125 1.68359375 10.3515625 C1.93525191 13.95454775 1.93525191 13.95454775 2.6171875 17.28125 C3 20 3 20 1.6875 22.875 C0.8521875 23.926875 0.8521875 23.926875 0 25 C-0.66 25 -1.32 25 -2 25 C-2 26.32 -2 27.64 -2 29 C-2.639375 29.28875 -3.27875 29.5775 -3.9375 29.875 C-6.15206079 30.82823451 -6.15206079 30.82823451 -7 33 C-7.99 33 -8.98 33 -10 33 C-10 33.66 -10 34.32 -10 35 C-15.23809524 40 -15.23809524 40 -20 40 C-19.814375 41.11375 -19.62875 42.2275 -19.4375 43.375 C-19 47 -19 47 -20 49 C-20.8971875 48.4740625 -20.8971875 48.4740625 -21.8125 47.9375 C-24.10813214 46.66695302 -24.10813214 46.66695302 -27 48 C-25.0067579 40.4699743 -17.14961343 36.09974228 -11 32 C-10.34 32 -9.68 32 -9 32 C-8.7215625 31.26265625 -8.443125 30.5253125 -8.15625 29.765625 C-7.1057811 27.25301695 -5.87989824 25.0890958 -4.5 22.75 C-0.84297822 15.65170993 -0.60898141 7.8349549 0 0 Z " fill="#1E0B06" transform="translate(234,191)"/>
<path d="M0 0 C4.13291399 8.26582798 4.31998048 17.00492074 1.4375 25.8125 C-1.93119717 33.94465316 -8.31578981 40.69135357 -16 45 C-21.44599562 46.97309021 -26.23772047 47.25198738 -31.9375 47.125 C-32.71673828 47.11597656 -33.49597656 47.10695313 -34.29882812 47.09765625 C-36.19935447 47.07433691 -38.09972008 47.03847586 -40 47 C-40 46.67 -40 46.34 -40 46 C-38.96101563 45.97421875 -37.92203125 45.9484375 -36.8515625 45.921875 C-29.25709343 45.64393967 -22.7986682 45.1634335 -15.8203125 41.83984375 C-14 41 -14 41 -12 41 C-11.67 40.01 -11.34 39.02 -11 38 C-10.34 37.34 -9.68 36.68 -9 36 C-9.20625 35.38125 -9.4125 34.7625 -9.625 34.125 C-9.74875 33.42375 -9.8725 32.7225 -10 32 C-8.3125 29.75 -8.3125 29.75 -6 28 C-4.68 28 -3.36 28 -2 28 C-2.495 26.02 -2.495 26.02 -3 24 C-2.34 24.33 -1.68 24.66 -1 25 C0.485 17.08 0.485 17.08 2 9 C1.34 9 0.68 9 0 9 C0 6.03 0 3.06 0 0 Z " fill="#E49034" transform="translate(308,230)"/>
<path d="M0 0 C2.3801759 1.58321813 4.61641662 3.23972711 6.73828125 5.15625 C5.74828125 5.48625 4.75828125 5.81625 3.73828125 6.15625 C3.38765625 5.723125 3.03703125 5.29 2.67578125 4.84375 C-4.38575045 -1.30661632 -14.37551141 -1.34983216 -23.26171875 -0.84375 C-24.60378705 -0.54753798 -25.94161345 -0.22612533 -27.26171875 0.15625 C-27.26171875 0.81625 -27.26171875 1.47625 -27.26171875 2.15625 C-28.91171875 2.15625 -30.56171875 2.15625 -32.26171875 2.15625 C-32.52984375 2.795625 -32.79796875 3.435 -33.07421875 4.09375 C-34.26171875 6.15625 -34.26171875 6.15625 -37.26171875 7.15625 C-37.59171875 8.14625 -37.92171875 9.13625 -38.26171875 10.15625 C-39.25171875 10.775 -39.25171875 10.775 -40.26171875 11.40625 C-43.16405521 13.9457944 -42.80991857 16.41276281 -43.26171875 20.15625 C-44.69921875 23.09375 -44.69921875 23.09375 -46.26171875 25.15625 C-46.92171875 25.15625 -47.58171875 25.15625 -48.26171875 25.15625 C-48.26171875 28.78625 -48.26171875 32.41625 -48.26171875 36.15625 C-48.59171875 36.15625 -48.92171875 36.15625 -49.26171875 36.15625 C-49.72559041 27.8194455 -49.53212603 21.4367013 -45.26171875 14.15625 C-44.68421875 13.125 -44.10671875 12.09375 -43.51171875 11.03125 C-33.23713745 -2.09738167 -15.53156408 -8.44434552 0 0 Z " fill="#D98836" transform="translate(215.26171875,78.84375)"/>
<path d="M0 0 C0.721875 0.103125 1.44375 0.20625 2.1875 0.3125 C2.1875 0.6425 2.1875 0.9725 2.1875 1.3125 C9.6125 2.3025 9.6125 2.3025 17.1875 3.3125 C17.6825 5.2925 17.6825 5.2925 18.1875 7.3125 C17.218125 6.8175 16.24875 6.3225 15.25 5.8125 C10.20806298 3.75170828 5.57045236 2.98813372 0.39892578 5.01269531 C-1.64283932 5.92025964 -3.66701884 6.85850837 -5.6875 7.8125 C-15.10085896 12.24521103 -22.8664309 12.56757716 -32.8125 9.3125 C-33.4725 8.6525 -34.1325 7.9925 -34.8125 7.3125 C-28.2125 7.3125 -21.6125 7.3125 -14.8125 7.3125 C-14.8125 6.6525 -14.8125 5.9925 -14.8125 5.3125 C-13.760625 5.415625 -12.70875 5.51875 -11.625 5.625 C-6.00578766 5.16440882 -5.20824185 0.57869354 0 0 Z " fill="#DD8830" transform="translate(142.8125,266.6875)"/>
<path d="M0 0 C8.22902843 4.11451422 12.85951348 9.87237832 17 18 C18.26148706 21.81038214 18.3331644 25.77234323 18.5625 29.75 C18.60568359 30.44738281 18.64886719 31.14476562 18.69335938 31.86328125 C18.79889596 33.57531922 18.8998991 35.28763561 19 37 C18.54625 36.505 18.0925 36.01 17.625 35.5 C16.12364481 33.77390663 16.12364481 33.77390663 14 34 C14.05800781 32.90300781 14.11601562 31.80601562 14.17578125 30.67578125 C14.22269688 29.22139686 14.26819511 27.76696626 14.3125 26.3125 C14.35439453 25.59126953 14.39628906 24.87003906 14.43945312 24.12695312 C14.53719699 19.84577193 14.36500723 18.4485701 11.54296875 14.98046875 C9.40570473 12.89759268 9.40570473 12.89759268 8 13 C8 11.35 8 9.7 8 8 C3.545 7.01 3.545 7.01 -1 6 C-1 5.34 -1 4.68 -1 4 C-0.34 4 0.32 4 1 4 C0.67 2.68 0.34 1.36 0 0 Z " fill="#E58D31" transform="translate(138,214)"/>
<path d="M0 0 C1.875 0.625 1.875 0.625 4 2 C6.43632933 7.37954598 6.91546424 13.38134995 7.6796875 19.19140625 C8.70581502 26.05946433 10.64959238 32.30552346 16.125 36.875 C17.548125 37.926875 17.548125 37.926875 19 39 C19.66 39.66 20.32 40.32 21 41 C22.485 40.505 22.485 40.505 24 40 C24 40.66 24 41.32 24 42 C25.45833358 43.62514468 25.45833358 43.62514468 27 45 C26.67 45.99 26.34 46.98 26 48 C15.10553789 40.71117837 8.23682274 33.98190937 5 21 C4.67727884 17.95942229 4.50310534 14.93599203 4.34765625 11.8828125 C3.81798725 7.49072577 2.09405096 3.85694967 0 0 Z " fill="#E0913A" transform="translate(161,184)"/>
<path d="M0 0 C2 2 2 2 2 6 C4.97851562 5.90234375 4.97851562 5.90234375 7.95703125 5.8046875 C10 6 10 6 13 8 C15.10806664 7.8046409 15.10806664 7.8046409 17.3125 7.125 C20.97475532 6.19148394 24.19721701 5.80498549 28 6 C23.28017788 10.71982212 16.57985275 10.47416448 10.26904297 10.51293945 C3.33839832 10.3308888 -2.33930388 8.02516627 -8 4 C-8.66 3.01 -9.32 2.02 -10 1 C-7.36 1.66 -4.72 2.32 -2 3 C-1.34 2.01 -0.68 1.02 0 0 Z " fill="#ED8E2A" transform="translate(110,178)"/>
<path d="M0 0 C0.99 0 1.98 0 3 0 C4.86540627 4.70406799 6.36843005 8.94744036 7 14 C7.33 14 7.66 14 8 14 C8.66 19.61 9.32 25.22 10 31 C10.99 31 11.98 31 13 31 C13.33 33.31 13.66 35.62 14 38 C8.36480411 32.99093699 4.30445279 26.53860173 3.7890625 18.85546875 C3.68004643 16.41818082 3.57584732 13.98067248 3.4765625 11.54296875 C2.97084994 7.78328601 1.80402734 5.30416773 0 2 C0 1.34 0 0.68 0 0 Z " fill="#F89525" transform="translate(162,274)"/>
<path d="M0 0 C0.33 0.99 0.66 1.98 1 3 C0.01 4.485 0.01 4.485 -1 6 C-1.19873224 7.97312726 -1.312533 9.95537398 -1.375 11.9375 C-2.09772388 22.76631284 -5.07580013 32.25965628 -13 40 C-14.485 40.495 -14.485 40.495 -16 41 C-15.67 39.68 -15.34 38.36 -15 37 C-14.01 37 -13.02 37 -12 37 C-10.0311624 33.40687138 -9.3058952 30.0191867 -8.5625 26.0234375 C-8 24 -8 24 -6 22 C-5.50183609 18.67521716 -5.1647416 15.37673121 -4.87695312 12.02929688 C-4.38469488 7.23532246 -3.48476019 3.48476019 0 0 Z " fill="#E99337" transform="translate(236,274)"/>
<path d="M0 0 C6.15234375 0.5859375 6.15234375 0.5859375 8 1 C8.33 1.66 8.66 2.32 9 3 C8.67 3.66 8.34 4.32 8 5 C8.99 5 9.98 5 11 5 C11 4.34 11 3.68 11 3 C12.65 3.33 14.3 3.66 16 4 C15.34 4.66 14.68 5.32 14 6 C16.50497004 7.25248502 18.20853274 7.11374406 21.0078125 7.09765625 C21.99394531 7.09443359 22.98007813 7.09121094 23.99609375 7.08789062 C25.54490234 7.07532227 25.54490234 7.07532227 27.125 7.0625 C28.16527344 7.05798828 29.20554688 7.05347656 30.27734375 7.04882812 C32.85161962 7.03701952 35.42578146 7.02055075 38 7 C31.57346772 11.28435485 23.48548045 10.69787767 16 10 C9.5786538 8.49486917 4.69654085 5.57294767 0 1 C0 0.67 0 0.34 0 0 Z " fill="#E18D32" transform="translate(176,312)"/>
<path d="M0 0 C0.66 0 1.32 0 2 0 C2.98414433 1.91411557 3.96213349 3.8313967 4.9375 5.75 C5.48277344 6.81734375 6.02804688 7.8846875 6.58984375 8.984375 C9.8113493 15.873578 9.98523266 23.36695457 8 30.6875 C7.505 31.8321875 7.505 31.8321875 7 33 C6.67 33 6.34 33 6 33 C5.7834375 31.39125 5.7834375 31.39125 5.5625 29.75 C5.12651327 26.21662969 5.12651327 26.21662969 4.3125 23.75 C4 22 4 22 6 19 C5.79001974 13.43552303 4.07259196 10.51286944 1 6 C0.25 2.625 0.25 2.625 0 0 Z " fill="#DE8933" transform="translate(225,88)"/>
<path d="M0 0 C-3 1 -3 1 -6 0 C-7.40824893 -0.08021999 -8.81997231 -0.10765977 -10.23046875 -0.09765625 C-11.43413086 -0.09282227 -11.43413086 -0.09282227 -12.66210938 -0.08789062 C-13.91217773 -0.07532227 -13.91217773 -0.07532227 -15.1875 -0.0625 C-16.03248047 -0.05798828 -16.87746094 -0.05347656 -17.74804688 -0.04882812 C-19.83206155 -0.03705403 -21.91603977 -0.0191189 -24 0 C-24 0.66 -24 1.32 -24 2 C-25.051875 2.0825 -26.10375 2.165 -27.1875 2.25 C-31.31556818 3.06207899 -33.05830641 4.05830641 -36 7 C-36.33 7.99 -36.66 8.98 -37 10 C-38.65 10.33 -40.3 10.66 -42 11 C-31.49325998 -2.82465792 -16.08022235 -6.82191251 0 0 Z " fill="#DC8E36" transform="translate(137,213)"/>
<path d="M0 0 C0.33 0 0.66 0 1 0 C1.00257813 0.61746094 1.00515625 1.23492187 1.0078125 1.87109375 C1.32933337 8.91240085 3.20144498 13.77122971 8 19 C11.15058997 21.08302774 11.15058997 21.08302774 14 22 C12.3125 23.1875 12.3125 23.1875 10 24 C7.25 22.75 7.25 22.75 5 21 C5 20.34 5 19.68 5 19 C4.34 19 3.68 19 3 19 C2.67 18.01 2.34 17.02 2 16 C0.35 16 -1.3 16 -3 16 C-2.67 13.36 -2.34 10.72 -2 8 C-1.34 8 -0.68 8 0 8 C0 5.36 0 2.72 0 0 Z " fill="#F89327" transform="translate(154,240)"/>
<path d="M0 0 C0.66 0 1.32 0 2 0 C2 0.66 2 1.32 2 2 C2.66 2 3.32 2 4 2 C4.99 4.97 5.98 7.94 7 11 C7.33 11 7.66 11 8 11 C8 12.98 8 14.96 8 17 C8.66 17.33 9.32 17.66 10 18 C9.01 18.33 8.02 18.66 7 19 C7 19.66 7 20.32 7 21 C5.3203125 22.32421875 5.3203125 22.32421875 3.125 23.6875 C2.40570313 24.14511719 1.68640625 24.60273438 0.9453125 25.07421875 C-0.01761719 25.53248047 -0.01761719 25.53248047 -1 26 C-1.66 25.67 -2.32 25.34 -3 25 C-1.09570312 22.75390625 -1.09570312 22.75390625 0.80859375 20.5078125 C4.12874043 16.30592195 3.43118312 11.10951993 3 6 C1.68796267 2.4436007 1.68796267 2.4436007 0 0 Z " fill="#E58F32" transform="translate(189,232)"/>
<path d="M0 0 C0.33 0.66 0.66 1.32 1 2 C3.64 1.67 6.28 1.34 9 1 C8.2575 1.556875 7.515 2.11375 6.75 2.6875 C-0.45072924 8.74265868 -1.31944477 13.95398898 -2.16210938 22.87890625 C-2.7851525 28.7851525 -2.7851525 28.7851525 -5 31 C-4.86105852 27.89548451 -4.712657 24.79149165 -4.5625 21.6875 C-4.52318359 20.80642578 -4.48386719 19.92535156 -4.44335938 19.01757812 C-4.40146484 18.17001953 -4.35957031 17.32246094 -4.31640625 16.44921875 C-4.27974854 15.66893311 -4.24309082 14.88864746 -4.20532227 14.0847168 C-4 12 -4 12 -3 9 C-2.34 9 -1.68 9 -1 9 C-1.20625 7.88625 -1.4125 6.7725 -1.625 5.625 C-1.74875 4.42875 -1.8725 3.2325 -2 2 C-1.34 1.34 -0.68 0.68 0 0 Z " fill="#DD8D31" transform="translate(236,179)"/>
<path d="M0 0 C0.66 0.99 1.32 1.98 2 3 C1.34 3 0.68 3 0 3 C-3.18583738 11.47801353 -4.67150667 22.14247488 -1.125 30.6875 C-0.75632812 31.41324219 -0.38765625 32.13898438 -0.0078125 32.88671875 C1.11440627 35.23989843 1.57795536 37.43630333 2 40 C-2.45927302 36.46333519 -3.48197596 32.25023601 -5 27 C-5.33 26.01 -5.66 25.02 -6 24 C-6.90425379 15.49653651 -4.92655718 7.03793883 0 0 Z " fill="#D28534" transform="translate(94,224)"/>
<path d="M0 0 C0.99 0.33 1.98 0.66 3 1 C6.70927357 11.54214595 4.91565938 22.24152008 3 33 C0.525 33.495 0.525 33.495 -2 34 C-1.71125 33.34 -1.4225 32.68 -1.125 32 C2.82887486 21.4563337 3.39001354 10.80566817 0 0 Z " fill="#1D0400" transform="translate(308,139)"/>
<path d="M0 0 C0 0.33 0 0.66 0 1 C-2.64 1 -5.28 1 -8 1 C-8 0.34 -8 -0.32 -8 -1 C-9.89611434 -0.85786703 -11.79188394 -0.71113093 -13.6875 -0.5625 C-14.74324219 -0.48128906 -15.79898438 -0.40007812 -16.88671875 -0.31640625 C-20.58919261 0.0598803 -24.08664309 0.76635056 -27.6875 1.6875 C-28.8321875 1.8421875 -28.8321875 1.8421875 -30 2 C-30.66 1.34 -31.32 0.68 -32 0 C-22.34813818 -4.82593091 -9.65186182 -4.82593091 0 0 Z " fill="#EA8F32" transform="translate(138,124)"/>
<path d="M0 0 C0 0.33 0 0.66 0 1 C-0.556875 1.14695313 -1.11375 1.29390625 -1.6875 1.4453125 C-10.56752622 4.05532021 -16.39873841 8.75130853 -22 16 C-22.66 16.66 -23.32 17.32 -24 18 C-24.3125 14.6875 -24.3125 14.6875 -24 11 C-21.60259082 9.04421883 -20.12413392 8 -17 8 C-16.34 5.69 -15.68 3.38 -15 1 C-9.9752761 0.37470103 -5.07471573 -0.13012092 0 0 Z " fill="#270C02" transform="translate(116,210)"/>
<path d="M0 0 C0.125 4.75 0.125 4.75 -1 7 C-0.67 7.99 -0.34 8.98 0 10 C-5.5770903 9.58171823 -9.65514618 7.38585455 -14 4 C-14.66 3.01 -15.32 2.02 -16 1 C-13.0625 1.375 -13.0625 1.375 -10 2 C-9.67 2.66 -9.34 3.32 -9 4 C-8.01 4.33 -7.02 4.66 -6 5 C-6 4.01 -6 3.02 -6 2 C-2.25 0 -2.25 0 0 0 Z " fill="#FC9222" transform="translate(192,132)"/>
<path d="M0 0 C0.66 0.33 1.32 0.66 2 1 C2.33 1.99 2.66 2.98 3 4 C1.35 4.33 -0.3 4.66 -2 5 C-3.90991688 10.86781691 -4.35949872 16.16486231 -4.47851562 22.30273438 C-4.63907235 26.41846884 -4.94373842 29.09392327 -8 32 C-8.66 32 -9.32 32 -10 32 C-9.79503906 31.35675781 -9.59007812 30.71351563 -9.37890625 30.05078125 C-7.78565887 24.7069228 -6.85713651 19.89745576 -6.6875 14.3125 C-6.35611184 8.00106188 -4.39682294 4.45060671 0 0 Z " fill="#2F1104" transform="translate(240,272)"/>
<path d="M0 0 C0.33 1.32 0.66 2.64 1 4 C0.01 4 -0.98 4 -2 4 C-2 4.66 -2 5.32 -2 6 C-7.23809524 11 -7.23809524 11 -12 11 C-11.814375 12.11375 -11.62875 13.2275 -11.4375 14.375 C-11 18 -11 18 -12 20 C-12.8971875 19.4740625 -12.8971875 19.4740625 -13.8125 18.9375 C-16.10813214 17.66695302 -16.10813214 17.66695302 -19 19 C-17.0067579 11.4699743 -9.14961343 7.09974228 -3 3 C-2.34 3 -1.68 3 -1 3 C-0.67 2.01 -0.34 1.02 0 0 Z " fill="#0D0406" transform="translate(226,220)"/>
<path d="M0 0 C0.33 0 0.66 0 1 0 C1.25 3.3125 1.25 3.3125 1 7 C-0.5625 8.75 -0.5625 8.75 -3 10 C-4.051875 10.556875 -5.10375 11.11375 -6.1875 11.6875 C-11.34967067 13.75677097 -16.31392314 13.9415535 -21.57421875 12.09765625 C-23.76030037 11.13330941 -25.88890503 10.11793209 -28 9 C-28 8.34 -28 7.68 -28 7 C-22.25 8.875 -22.25 8.875 -20 10 C-15.0747885 10.54035594 -11.13058282 10.54435469 -6.625 8.375 C-3.81379341 5.83152737 -1.97611766 3.2203399 0 0 Z " fill="#DA8936" transform="translate(242,162)"/>
<path d="M0 0 C3.43430937 2.28953958 3.83952743 3.14958409 5 7 C5.26116356 9.32624038 5.44409554 11.66214178 5.5625 14 C5.77916503 18.10337039 6.08125397 21.99092642 7 26 C6.34 26 5.68 26 5 26 C3.24252386 21.49646738 2.80705592 17.82360189 3 13 C2.01 12.67 1.02 12.34 0 12 C0.2475 10.824375 0.2475 10.824375 0.5 9.625 C1.0623707 7.11791961 1.0623707 7.11791961 1 5 C0.34 5 -0.32 5 -1 5 C-0.67 3.35 -0.34 1.7 0 0 Z " fill="#270C04" transform="translate(161,275)"/>
<path d="M0 0 C0.99 0.66 1.98 1.32 3 2 C3 2.66 3 3.32 3 4 C1.39566191 3.52140759 -0.20846416 3.04210442 -1.8125 2.5625 C-3.15248047 2.16224609 -3.15248047 2.16224609 -4.51953125 1.75390625 C-6.35473055 1.19612127 -8.18033726 0.60655425 -10 0 C-16.0375061 -0.29621242 -22.07672561 -0.3162832 -28 1 C-28 0.34 -28 -0.32 -28 -1 C-18.5522251 -4.35920885 -9.26518987 -3.76830483 0 0 Z " fill="#2A0C01" transform="translate(293,211)"/>
<path d="M0 0 C0.45375 0.70125 0.9075 1.4025 1.375 2.125 C6.53568188 7.77717539 13.06431939 11.74531323 20.81640625 12.1875 C24.5722991 11.86499042 27.58087064 10.55414971 31 9 C30.34 10.65 29.68 12.3 29 14 C18.21913947 14.43771915 11.75964551 13.67401562 3 7 C2.67 6.01 2.34 5.02 2 4 C1.34 4 0.68 4 0 4 C0 2.68 0 1.36 0 0 Z " fill="#D98B39" transform="translate(207,250)"/>
<path d="M0 0 C0 1.32 0 2.64 0 4 C1.32 4 2.64 4 4 4 C4 4.99 4 5.98 4 7 C0.7662661 5.97466974 -2.20934998 4.89532501 -5.25 3.375 C-10.94143248 1.28814142 -16.33834139 1.14826924 -22.125 3 C-22.74375 3.33 -23.3625 3.66 -24 4 C-24 3.34 -24 2.68 -24 2 C-17.19995259 -2.05355624 -7.55606719 -1.58150244 0 0 Z " fill="#DC8B34" transform="translate(263,269)"/>
<path d="M0 0 C0.66 0 1.32 0 2 0 C3.55647319 4.66941958 3.26704094 9.35860536 3.3125 14.25 C3.34150391 15.27480469 3.37050781 16.29960937 3.40039062 17.35546875 C3.45451778 23.82574542 2.79002275 27.70742385 -1 33 C-1.66 33 -2.32 33 -3 33 C-2.52140759 31.39566191 -2.04210442 29.79153584 -1.5625 28.1875 C-1.29566406 27.29417969 -1.02882813 26.40085937 -0.75390625 25.48046875 C-0.19612127 23.64526945 0.39344575 21.81966274 1 20 C1.30886376 13.27767109 1.23219764 6.62306233 0 0 Z " fill="#2B0D02" transform="translate(309,230)"/>
<path d="M0 0 C2.475 0.495 2.475 0.495 5 1 C0.81616831 5.88113698 -4.76636747 8.66360575 -11 10 C-13.75970408 10.06926968 -16.49196042 10.0941736 -19.25 10.0625 C-19.99507813 10.05798828 -20.74015625 10.05347656 -21.5078125 10.04882812 C-23.3385764 10.03709246 -25.16929873 10.0191585 -27 10 C-27 9.67 -27 9.34 -27 9 C-25.40671875 8.83564453 -25.40671875 8.83564453 -23.78125 8.66796875 C-16.40440093 7.85713438 -9.86649751 6.96201853 -3 4 C-2.01 4 -1.02 4 0 4 C0 2.68 0 1.36 0 0 Z " fill="#D48333" transform="translate(295,178)"/>
<path d="M0 0 C0.66 0.33 1.32 0.66 2 1 C1.01 2.485 1.01 2.485 0 4 C-0.66 4 -1.32 4 -2 4 C-2.04125 4.70125 -2.0825 5.4025 -2.125 6.125 C-3.32097767 10.0546409 -5.6817802 12.59800507 -9 15 C-9.99 15 -10.98 15 -12 15 C-10.23188872 8.71338212 -5.3319351 3.5546234 0 0 Z " fill="#DD8935" transform="translate(104,125)"/>
<path d="M0 0 C0.66 0.33 1.32 0.66 2 1 C1.67 1.66 1.34 2.32 1 3 C0.34 3 -0.32 3 -1 3 C-1 3.99 -1 4.98 -1 6 C-2.32 6.33 -3.64 6.66 -5 7 C-5 7.99 -5 8.98 -5 10 C-5.763125 10.061875 -6.52625 10.12375 -7.3125 10.1875 C-10.19376674 10.75906626 -10.19376674 10.75906626 -11.6875 13.375 C-12.120625 14.24125 -12.55375 15.1075 -13 16 C-13.66 16.99 -14.32 17.98 -15 19 C-15.66 19 -16.32 19 -17 19 C-15.53289058 14.15853891 -12.6487256 10.44051028 -9 7 C-8.34 7 -7.68 7 -7 7 C-6.67 6.01 -6.34 5.02 -6 4 C-4.04402816 2.60287726 -2.04563599 1.26220093 0 0 Z " fill="#D98C33" transform="translate(263,212)"/>
<path d="M0 0 C11.48868006 -0.72180189 20.24252911 1.39968963 29.44140625 8.4375 C31.15537273 10.15576213 32.0401695 11.78427187 33 14 C30.36900035 12.53833353 28.22531533 11.24361016 26.171875 9.0234375 C19.67275459 2.96850158 8.47712461 2.14230757 0 1 C0 0.67 0 0.34 0 0 Z " fill="#DD8E33" transform="translate(271,210)"/>
<path d="M0 0 C-0.33 0.66 -0.66 1.32 -1 2 C-1.82757813 1.83886719 -2.65515625 1.67773438 -3.5078125 1.51171875 C-7.31457204 0.95390499 -11.0368409 0.80886538 -14.875 0.8125 C-15.57882813 0.81185547 -16.28265625 0.81121094 -17.0078125 0.81054688 C-22.0062047 0.86145643 -26.27467386 1.42489129 -31 3 C-31 1.68 -31 0.36 -31 -1 C-20.29909347 -2.15909239 -10.48352548 -2.74977718 0 0 Z " fill="#3A1705" transform="translate(137,121)"/>
<path d="M0 0 C0 0.66 0 1.32 0 2 C-1.32 2 -2.64 2 -4 2 C-4 2.99 -4 3.98 -4 5 C-7.95831809 5.02892857 -11.91660917 5.04677427 -15.875 5.0625 C-17.56689453 5.07506836 -17.56689453 5.07506836 -19.29296875 5.08789062 C-20.36933594 5.09111328 -21.44570312 5.09433594 -22.5546875 5.09765625 C-23.54968262 5.10289307 -24.54467773 5.10812988 -25.56982422 5.11352539 C-28 5 -28 5 -30 4 C-30 3.01 -30 2.02 -30 1 C-28.7625 1.24169922 -28.7625 1.24169922 -27.5 1.48828125 C-23.64896167 2.05132368 -19.88214016 2.18385137 -16 2.1875 C-15.31421875 2.19974609 -14.6284375 2.21199219 -13.921875 2.22460938 C-8.98749886 2.2387345 -4.68977563 0 0 0 Z " fill="#230701" transform="translate(216,319)"/>
<path d="M0 0 C0.804375 0.495 1.60875 0.99 2.4375 1.5 C2.4375 2.49 2.4375 3.48 2.4375 4.5 C1.1175 4.17 -0.2025 3.84 -1.5625 3.5 C-1.5625 2.84 -1.5625 2.18 -1.5625 1.5 C-2.5525 1.83 -3.5425 2.16 -4.5625 2.5 C-4.8925 1.84 -5.2225 1.18 -5.5625 0.5 C-6.13097656 0.63277344 -6.69945312 0.76554687 -7.28515625 0.90234375 C-12.03401097 1.9884758 -16.73030324 2.88312382 -21.5625 3.5 C-14.98488948 -1.8595345 -7.90998281 -3.33051908 0 0 Z " fill="#260C02" transform="translate(157.5625,271.5)"/>
<path d="M0 0 C0.99 0 1.98 0 3 0 C2.690625 1.216875 2.38125 2.43375 2.0625 3.6875 C0.9026277 8.76999599 0.63607087 13.78494582 0.44140625 18.984375 C-0.04486757 22.3065289 -1.09994707 24.26392378 -3 27 C-3.625 25.25 -3.625 25.25 -4 23 C-3.66742188 22.39929688 -3.33484375 21.79859375 -2.9921875 21.1796875 C-1.74177833 18.43272563 -2.04115682 16.83100898 -2.5 13.875 C-2.90625 11.2421875 -2.90625 11.2421875 -3 9 C-2.34 8.34 -1.68 7.68 -1 7 C-0.59952556 4.67724823 -0.2602896 2.34260643 0 0 Z " fill="#220901" transform="translate(243,140)"/>
<path d="M0 0 C4.20161325 4.96554293 5.17414667 9.99404427 5.375 16.375 C5.73960466 22.28294595 6.95729161 25.96051422 10 31 C10.33 31.66 10.66 32.32 11 33 C7.80206612 32.00753776 7.00613235 31.01067483 5.3125 28.0625 C3.74910578 24.04114909 3.59256797 20.0568493 3.31640625 15.78515625 C2.9181538 12.27955138 1.89984471 9.24601396 0.62109375 5.97265625 C0 4 0 4 0 0 Z " fill="#D4893A" transform="translate(151,137)"/>
<path d="M0 0 C0.66 0.33 1.32 0.66 2 1 C1.79503906 1.53109375 1.59007813 2.0621875 1.37890625 2.609375 C1.10949219 3.31578125 0.84007813 4.0221875 0.5625 4.75 C0.29566406 5.44609375 0.02882813 6.1421875 -0.24609375 6.859375 C-2.84651141 14.24294432 -1.96876432 21.37098099 -1 29 C-2.484375 27.984375 -2.484375 27.984375 -4 26 C-4.24715623 23.32835881 -4.32772662 20.91213691 -4.25 18.25 C-4.24484375 17.5590625 -4.2396875 16.868125 -4.234375 16.15625 C-4.0562318 4.30972744 -4.0562318 4.30972744 -1.4375 1.0625 C-0.7259375 0.5365625 -0.7259375 0.5365625 0 0 Z " fill="#2A0C01" transform="translate(91,137)"/>
<path d="M0 0 C2.31 0.66 4.62 1.32 7 2 C7 2.66 7 3.32 7 4 C8.13501953 3.8453125 8.13501953 3.8453125 9.29296875 3.6875 C12 4 12 4 13.80078125 6.1875 C14.29964844 7.115625 14.79851562 8.04375 15.3125 9 C15.82425781 9.928125 16.33601563 10.85625 16.86328125 11.8125 C17.23839844 12.534375 17.61351562 13.25625 18 14 C17.34 14.66 16.68 15.32 16 16 C15.68289062 15.50371094 15.36578125 15.00742188 15.0390625 14.49609375 C11.38349018 9.17430752 7.38445433 5.84922633 1.9765625 2.34765625 C1.32429687 1.90292969 0.67203125 1.45820313 0 1 C0 0.67 0 0.34 0 0 Z " fill="#290D02" transform="translate(136,212)"/>
<path d="M0 0 C2.00720923 0.28674418 4.0085944 0.61866701 6 1 C6 1.66 6 2.32 6 3 C6.66 3.33 7.32 3.66 8 4 C3.545 6.97 3.545 6.97 -1 10 C-2.57897048 6.84205905 -1.9764908 4.25496933 -1 1 C-0.67 0.67 -0.34 0.34 0 0 Z " fill="#07020A" transform="translate(98,121)"/>
<path d="M0 0 C2.125 0.375 2.125 0.375 4 1 C-3.05380017 7.04611443 -3.05380017 7.04611443 -8.24609375 6.96484375 C-14.59375 6.40625 -14.59375 6.40625 -17 4 C-15.824375 4.04125 -14.64875 4.0825 -13.4375 4.125 C-8.45017592 4.125 -3.64575537 3.64575537 0 0 Z " fill="#321302" transform="translate(236,256)"/>
<path d="M0 0 C3.65208621 7.30417242 4.21137624 14.851651 2.328125 22.85546875 C1.62857608 24.93101719 0.82528855 26.97116564 0 29 C-1.01573289 25.95280133 -1.0097124 25.01166996 -0.44140625 21.98828125 C-0.30283203 21.23095703 -0.16425781 20.47363281 -0.02148438 19.69335938 C0.12998047 18.90767578 0.28144531 18.12199219 0.4375 17.3125 C0.65889648 16.11657227 0.65889648 16.11657227 0.88476562 14.89648438 C1.24984964 12.92974148 1.62405289 10.96469533 2 9 C1.34 9 0.68 9 0 9 C0 6.03 0 3.06 0 0 Z " fill="#D49240" transform="translate(308,230)"/>
<path d="M0 0 C2.19752711 6.55877321 1.45500303 16.5233591 -1.18359375 22.828125 C-2.5625 25 -2.5625 25 -5 28 C-5.66 27.67 -6.32 27.34 -7 27 C-6.52385254 26.43611572 -6.04770508 25.87223145 -5.55712891 25.29125977 C-3.87165725 22.81114821 -3.46826851 21.28403037 -3.0859375 18.33984375 C-2.90417969 17.0259668 -2.90417969 17.0259668 -2.71875 15.68554688 C-2.6053125 14.77869141 -2.491875 13.87183594 -2.375 12.9375 C-2.13501987 11.13381952 -1.8929223 9.33041916 -1.6484375 7.52734375 C-1.49640869 6.33226196 -1.49640869 6.33226196 -1.34130859 5.11303711 C-1 3 -1 3 0 0 Z " fill="#C57F38" transform="translate(245,231)"/>
<path d="M0 0 C0.99 0 1.98 0 3 0 C5.38647706 4.92692037 5.39861843 9.7677171 5.56640625 15.1171875 C5.74401963 19.21001749 6.48427938 22.23683156 8 26 C7.625 28.3125 7.625 28.3125 7 30 C4.11731612 23.73329592 3.59012867 18.24731444 3.40625 11.3671875 C2.96027447 7.6707365 1.76834343 5.24509831 0 2 C0 1.34 0 0.68 0 0 Z " fill="#DA8D38" transform="translate(162,274)"/>
<path d="M0 0 C0.79921875 0.01804688 1.5984375 0.03609375 2.421875 0.0546875 C3.02515625 0.07789063 3.6284375 0.10109375 4.25 0.125 C4.25 0.455 4.25 0.785 4.25 1.125 C2.4246875 1.49625 2.4246875 1.49625 0.5625 1.875 C-3.35653217 2.83221494 -5.70788466 4.44078058 -8.75 7.125 C-9.41 7.125 -10.07 7.125 -10.75 7.125 C-11.08 8.115 -11.41 9.105 -11.75 10.125 C-12.74 9.795 -13.73 9.465 -14.75 9.125 C-13.8419838 7.99300647 -12.92316174 6.86967637 -12 5.75 C-11.48953125 5.12351563 -10.9790625 4.49703125 -10.453125 3.8515625 C-7.2330668 0.58719157 -4.51791583 -0.13287988 0 0 Z " fill="#280D02" transform="translate(249.75,179.875)"/>
<path d="M0 0 C0.66 0 1.32 0 2 0 C1.47588057 4.41530912 -0.08225543 6.83323558 -2.875 10.25 C-3.57367188 11.12140625 -4.27234375 11.9928125 -4.9921875 12.890625 C-7 15 -7 15 -10 16 C-10 14.35 -10 12.7 -10 11 C-8.68 11.33 -7.36 11.66 -6 12 C-6.33 11.01 -6.66 10.02 -7 9 C-5.68 8.67 -4.36 8.34 -3 8 C-3 7.01 -3 6.02 -3 5 C-2.34 5 -1.68 5 -1 5 C-0.67 3.35 -0.34 1.7 0 0 Z " fill="#DD8D37" transform="translate(229,121)"/>
<path d="M0 0 C2 3 2 3 3 6.625 C3.33 7.73875 3.66 8.8525 4 10 C4.66 10.33 5.32 10.66 6 11 C6.33 11.99 6.66 12.98 7 14 C8.62332967 15.38576923 10.28724465 16.72641268 12 18 C11.67 18.66 11.34 19.32 11 20 C5.8993494 16.76304866 1.9818119 13.88538079 0 8 C-0.29594944 5.23457082 -0.19604933 2.79370297 0 0 Z " fill="#381504" transform="translate(206,240)"/>
<path d="M0 0 C1.46484375 1.33463542 2.9296875 2.66927083 4.39453125 4.00390625 C4.92433594 4.33261719 5.45414063 4.66132813 6 5 C6.99 4.67 7.98 4.34 9 4 C9 4.66 9 5.32 9 6 C10.45833358 7.62514468 10.45833358 7.62514468 12 9 C11.67 9.99 11.34 10.98 11 12 C9.18386638 10.71344735 7.37219046 9.42060005 5.5625 8.125 C4.55316406 7.40570313 3.54382813 6.68640625 2.50390625 5.9453125 C0 4 0 4 -1 2 C-0.67 1.34 -0.34 0.68 0 0 Z " fill="#DC892F" transform="translate(176,220)"/>
<path d="M0 0 C1.32 0.33 2.64 0.66 4 1 C3.113125 1.556875 2.22625 2.11375 1.3125 2.6875 C-1.8489644 4.79514294 -4.37691669 7.2423996 -7 10 C-8.66666667 11.66666667 -10.33333333 13.33333333 -12 15 C-11.875 12.25 -11.875 12.25 -11 9 C-8 6.75 -8 6.75 -5 5 C-4.67 4.34 -4.34 3.68 -4 3 C-3.01 3 -2.02 3 -1 3 C-0.67 2.01 -0.34 1.02 0 0 Z " fill="#3A1907" transform="translate(259,212)"/>
<path d="M0 0 C1.89878906 -0.02126953 1.89878906 -0.02126953 3.8359375 -0.04296875 C7.80823775 0.19864539 10.86534042 0.95856735 14.625 2.1875 C14.625 2.8475 14.625 3.5075 14.625 4.1875 C14.01914063 4.043125 13.41328125 3.89875 12.7890625 3.75 C4.21223798 1.84990349 -3.73157032 1.68429484 -12.375 3.1875 C-12.375 2.5275 -12.375 1.8675 -12.375 1.1875 C-8.21390984 0.19107036 -4.27313527 0.02166904 0 0 Z " fill="#2A0C00" transform="translate(199.375,163.8125)"/>
<path d="M0 0 C1.32 0.33 2.64 0.66 4 1 C-0.29975855 5.87305969 -5.37224317 8.8200442 -11 12 C-11 11.34 -11 10.68 -11 10 C-11.66 10 -12.32 10 -13 10 C-13 9.34 -13 8.68 -13 8 C-10.525 8.495 -10.525 8.495 -8 9 C-7.67 8.01 -7.34 7.02 -7 6 C-6.01 5.67 -5.02 5.34 -4 5 C-3.34 4.01 -2.68 3.02 -2 2 C-1.34 2 -0.68 2 0 2 C0 1.34 0 0.68 0 0 Z " fill="#E28D34" transform="translate(222,220)"/>
<path d="M0 0 C1.9912742 0.98678699 3.97119577 1.98454834 5.9296875 3.03515625 C9.96281299 5.16510003 13.39106378 6.53910638 18 7 C18 7.33 18 7.66 18 8 C11.36319957 8.61200004 7.00892404 8.07899547 1.3984375 4.38671875 C0.93695313 3.92910156 0.47546875 3.47148437 0 3 C0 2.01 0 1.02 0 0 Z " fill="#290E02" transform="translate(100,270)"/>
<path d="M0 0 C1.98 0 3.96 0 6 0 C6.33 0.99 6.66 1.98 7 3 C9.97 3 12.94 3 16 3 C16 3.33 16 3.66 16 4 C10.39 4 4.78 4 -1 4 C-0.67 2.68 -0.34 1.36 0 0 Z " fill="#F7932A" transform="translate(268,272)"/>
<path d="M0 0 C0 3.26795703 -0.57850516 5.0821948 -2 8 C-5 10 -5 10 -9 10 C-9 10.66 -9 11.32 -9 12 C-10.32 12.33 -11.64 12.66 -13 13 C-13 12.34 -13 11.68 -13 11 C-11.42578125 9.66796875 -11.42578125 9.66796875 -9.3125 8.1875 C-5.85714975 5.6895825 -2.91826739 3.1006591 0 0 Z " fill="#311203" transform="translate(305,263)"/>
<path d="M0 0 C0.33 0.66 0.66 1.32 1 2 C-0.04109483 4.56269497 -1.02610343 6.02610343 -3 8 C-3 9.32 -3 10.64 -3 12 C-5.64 11.67 -8.28 11.34 -11 11 C-8.88297221 8.80456377 -6.7766709 6.82452713 -4.375 4.9375 C-1.81772804 3.04518507 -1.81772804 3.04518507 0 0 Z " fill="#100504" transform="translate(227,308)"/>
<path d="M0 0 C3.3 0.66 6.6 1.32 10 2 C7 5 7 5 4.95703125 5.29296875 C2.97135417 5.1953125 0.98567708 5.09765625 -1 5 C-0.67 3.35 -0.34 1.7 0 0 Z " fill="#EC902A" transform="translate(209,314)"/>
<path d="M0 0 C0.598125 0.763125 1.19625 1.52625 1.8125 2.3125 C4.62012539 5.76186833 7.39888688 8.3922974 11 11 C9.35 11.33 7.7 11.66 6 12 C5.67 11.34 5.34 10.68 5 10 C4.01 9.67 3.02 9.34 2 9 C2 8.34 2 7.68 2 7 C1.34 7 0.68 7 0 7 C-0.38133299 5.0085944 -0.71325582 3.00720923 -1 1 C-0.67 0.67 -0.34 0.34 0 0 Z " fill="#E18B33" transform="translate(157,252)"/>
<path d="M0 0 C-6.786838 4.04599958 -11.26524137 5.15419776 -19.25 5.0625 C-19.99507812 5.05798828 -20.74015625 5.05347656 -21.5078125 5.04882812 C-23.3385764 5.03709246 -25.16929873 5.0191585 -27 5 C-27 4.67 -27 4.34 -27 4 C-26.07058594 3.96261719 -25.14117187 3.92523438 -24.18359375 3.88671875 C-14.70560517 3.38381724 -14.70560517 3.38381724 -6 0 C-3.50907189 -1.24546405 -2.58919267 -0.7767578 0 0 Z " fill="#CF8538" transform="translate(219,138)"/>
<path d="M0 0 C1.65 0 3.3 0 5 0 C4.61328125 0.42410156 4.2265625 0.84820312 3.828125 1.28515625 C0.2605903 5.30304806 -2.48173429 9.25403771 -5 14 C-5.93423645 10.98968256 -6.04449911 10.13349732 -5 7 C-4.34 7 -3.68 7 -3 7 C-1.79371992 4.66785852 -0.8345262 2.50357861 0 0 Z " fill="#220E01" transform="translate(174,82)"/>
<path d="M0 0 C-2.31 0.66 -4.62 1.32 -7 2 C-7 2.66 -7 3.32 -7 4 C-8.65 4 -10.3 4 -12 4 C-12.226875 4.639375 -12.45375 5.27875 -12.6875 5.9375 C-14 8 -14 8 -16.625 8.75 C-17.40875 8.8325 -18.1925 8.915 -19 9 C-14.59836061 3.86475404 -7.06902051 -2.64476056 0 0 Z " fill="#CC8437" transform="translate(195,77)"/>
<path d="M0 0 C3.465 1.485 3.465 1.485 7 3 C7 4.66666667 7 6.33333333 7 8 C5.35 8.33 3.7 8.66 2 9 C0.14223235 5.86501708 -0.20140476 3.62528568 0 0 Z " fill="#150804" transform="translate(104,183)"/>
<path d="M0 0 C2.39073445 3.82517513 2.55966552 7.59665524 3 12 C-0.39417765 8.87378374 -2.6062718 6.43458973 -4 2 C-2.68 2 -1.36 2 0 2 C0 1.34 0 0.68 0 0 Z " fill="#E79031" transform="translate(173,121)"/>
<path d="M0 0 C-3.41076206 3.41076206 -7.38936798 4.11007927 -12.0859375 4.1953125 C-13.51575693 4.18219489 -14.94551534 4.15860452 -16.375 4.125 C-17.47908203 4.11146484 -17.47908203 4.11146484 -18.60546875 4.09765625 C-20.4037888 4.07430144 -22.20193911 4.03843836 -24 4 C-24 3.67 -24 3.34 -24 3 C-22.80503906 2.92652344 -22.80503906 2.92652344 -21.5859375 2.8515625 C-14.2323416 2.33269564 -7.2691301 -0.34614905 0 0 Z " fill="#CD8230" transform="translate(138,184)"/>
<path d="M0 0 C0.33 1.32 0.66 2.64 1 4 C0.01 4 -0.98 4 -2 4 C-2 4.66 -2 5.32 -2 6 C-5.91343237 9.82025541 -8.38074374 11.59862455 -14 12 C-10.74098981 8.48026899 -7.1139069 5.47239725 -3 3 C-2.34 3 -1.68 3 -1 3 C-0.67 2.01 -0.34 1.02 0 0 Z " fill="#321304" transform="translate(226,220)"/>
<path d="M0 0 C4.90747773 0.44613434 6.67858832 1.47100009 10 5 C11.96879323 6.06011943 13.96435867 7.07470849 16 8 C13.45359629 8.94547564 12.3267236 9.12400774 9.74609375 8.14453125 C8.98425781 7.70496094 8.22242188 7.26539063 7.4375 6.8125 C6.67308594 6.38582031 5.90867188 5.95914063 5.12109375 5.51953125 C2.87465504 3.91020407 1.53080673 2.2839832 0 0 Z " fill="#D18732" transform="translate(176,133)"/>
<path d="M0 0 C-1.67392069 2.07168402 -2.47893026 2.94044082 -5.17651367 3.2487793 C-5.99869385 3.19117432 -6.82087402 3.13356934 -7.66796875 3.07421875 C-8.56064453 3.01943359 -9.45332031 2.96464844 -10.37304688 2.90820312 C-11.76620117 2.79895508 -11.76620117 2.79895508 -13.1875 2.6875 C-14.12787109 2.62626953 -15.06824219 2.56503906 -16.03710938 2.50195312 C-18.35940957 2.34870489 -20.67971458 2.1808714 -23 2 C-23.33 1.34 -23.66 0.68 -24 0 C-22.08574219 0.01740234 -22.08574219 0.01740234 -20.1328125 0.03515625 C-18.46354313 0.04453417 -16.79427217 0.05363437 -15.125 0.0625 C-14.28324219 0.07087891 -13.44148438 0.07925781 -12.57421875 0.08789062 C-11.76855469 0.09111328 -10.96289062 0.09433594 -10.1328125 0.09765625 C-9.38918457 0.10289307 -8.64555664 0.10812988 -7.87939453 0.11352539 C-1.00562284 -0.30168685 -1.00562284 -0.30168685 0 0 Z " fill="#311303" transform="translate(136,187)"/>
<path d="M0 0 C1.32 0.33 2.64 0.66 4 1 C-0.08806189 4.84616474 -3.40717158 7.63589551 -9 9 C-9 8.01 -9 7.02 -9 6 C-6.03 5.01 -3.06 4.02 0 3 C0 2.01 0 1.02 0 0 Z " fill="#2C0F02" transform="translate(187,252)"/>
<path d="M0 0 C0 0.33 0 0.66 0 1 C-2.64 1.33 -5.28 1.66 -8 2 C-8 2.66 -8 3.32 -8 4 C-8.99 4 -9.98 4 -11 4 C-11.33 4.99 -11.66 5.98 -12 7 C-13.65 6.67 -15.3 6.34 -17 6 C-11.31032436 1.12313516 -7.52676821 -0.29516738 0 0 Z " fill="#371705" transform="translate(153,180)"/>
<path d="M0 0 C0.66 0 1.32 0 2 0 C4.70172645 5.39636175 5.40128581 9.44601563 5.1875 15.4375 C5.17396484 16.16904297 5.16042969 16.90058594 5.14648438 17.65429688 C5.11153874 19.43652422 5.05774805 21.21836573 5 23 C4.67 23 4.34 23 4 23 C3.96261719 22.17757812 3.92523438 21.35515625 3.88671875 20.5078125 C3.46019124 13.26520813 2.45264219 6.8334622 0 0 Z " fill="#311301" transform="translate(152,137)"/>
<path d="M0 0 C1.7541123 1.07666203 3.50312587 2.16163339 5.25 3.25 C6.71179688 4.15492188 6.71179688 4.15492188 8.203125 5.078125 C10.79705245 6.86054442 12.86377619 8.70101628 15 11 C14.01 11.495 14.01 11.495 13 12 C13 11.34 13 10.68 13 10 C12.46375 9.731875 11.9275 9.46375 11.375 9.1875 C10.59125 8.795625 9.8075 8.40375 9 8 C7.989375 7.525625 6.97875 7.05125 5.9375 6.5625 C3.40503746 5.21544546 1.74941702 4.23536619 0 2 C0 1.34 0 0.68 0 0 Z " fill="#2D0E02" transform="translate(176,224)"/>
<path d="M0 0 C1.8871875 0.0309375 1.8871875 0.0309375 3.8125 0.0625 C2.8225 0.5575 2.8225 0.5575 1.8125 1.0625 C1.8125 1.7225 1.8125 2.3825 1.8125 3.0625 C2.8025 3.3925 3.7925 3.7225 4.8125 4.0625 C3.8125 5.0625 3.8125 5.0625 1.25 5.125 C0.0434375 5.0940625 0.0434375 5.0940625 -1.1875 5.0625 C-1.1875 4.4025 -1.1875 3.7425 -1.1875 3.0625 C-3.4975 3.0625 -5.8075 3.0625 -8.1875 3.0625 C-6.45706736 -0.39836529 -3.47359009 -0.0569441 0 0 Z " fill="#F2932C" transform="translate(272.1875,210.9375)"/>
<path d="M0 0 C-0.33 0.99 -0.66 1.98 -1 3 C-1.804375 2.67 -2.60875 2.34 -3.4375 2 C-7.73804795 0.79282865 -11.56966181 0.82278647 -16 1 C-16 0.34 -16 -0.32 -16 -1 C-10.15154554 -2.37610693 -5.51398918 -2.59481844 0 0 Z " fill="#DF8C33" transform="translate(160,180)"/>
<path d="M0 0 C0 0.33 0 0.66 0 1 C-1.87945312 1.18175781 -1.87945312 1.18175781 -3.796875 1.3671875 C-5.44795865 1.53604833 -7.09899809 1.70534183 -8.75 1.875 C-9.575 1.95363281 -10.4 2.03226562 -11.25 2.11328125 C-12.44882813 2.23896484 -12.44882813 2.23896484 -13.671875 2.3671875 C-14.4050293 2.44050293 -15.13818359 2.51381836 -15.89355469 2.58935547 C-18.19952905 3.03889753 -19.95391841 3.8637373 -22 5 C-22.66 4.34 -23.32 3.68 -24 3 C-16.19436658 -0.90281671 -8.51207047 -0.27891493 0 0 Z " fill="#D78C3D" transform="translate(130,121)"/>
<path d="M0 0 C2.97851562 0.390625 2.97851562 0.390625 5.95703125 0.78125 C8.15471706 1.053233 8.15471706 1.053233 11 1 C11.33 2.32 11.66 3.64 12 5 C9.5332355 5.88336837 8.36140628 6.1312406 5.859375 5.22265625 C5.16328125 4.83980469 4.4671875 4.45695313 3.75 4.0625 C3.04359375 3.68222656 2.3371875 3.30195313 1.609375 2.91015625 C1.07828125 2.60980469 0.5471875 2.30945313 0 2 C0 1.34 0 0.68 0 0 Z " fill="#E18A2E" transform="translate(258,181)"/>
<path d="M0 0 C0.33 0 0.66 0 1 0 C1.19573608 1.43640171 1.38127816 2.87419504 1.5625 4.3125 C1.66691406 5.11300781 1.77132813 5.91351563 1.87890625 6.73828125 C2 9 2 9 1 12 C-0.65 12.33 -2.3 12.66 -4 13 C-3.71125 12.34 -3.4225 11.68 -3.125 11 C-1.76562701 7.37500535 -0.89375361 3.76653307 0 0 Z " fill="#2B1203" transform="translate(310,160)"/>
<path d="M0 0 C2.22889496 -0.05428973 4.45817471 -0.09292338 6.6875 -0.125 C8.54955078 -0.15980469 8.54955078 -0.15980469 10.44921875 -0.1953125 C13.81237857 -0.01032021 15.9985587 0.54232105 19 2 C18.67 2.99 18.34 3.98 18 5 C17.2575 4.505 16.515 4.01 15.75 3.5 C10.88405974 0.996509 5.31414164 1.76782876 0 2 C0 1.34 0 0.68 0 0 Z " fill="#CC8434" transform="translate(142,269)"/>
<path d="M0 0 C0.75 1.625 0.75 1.625 1 4 C-1.02291546 7.61234904 -2.53871879 9.6924792 -6 12 C-5.44271087 8.65626525 -4.64826111 5.96687001 -3 3 C-2.01 3 -1.02 3 0 3 C0 2.01 0 1.02 0 0 Z " fill="#E18F36" transform="translate(306,167)"/>
<path d="M0 0 C1.32 0 2.64 0 4 0 C4.25 2.3125 4.25 2.3125 4 5 C2 6.8125 2 6.8125 0 8 C-1 7 -1 7 -1.125 4 C-1 1 -1 1 0 0 Z " fill="#05030A" transform="translate(170,80)"/>
<path d="M0 0 C5.87024368 2.67865488 10.76646153 5.06087179 15 10 C14.67 10.66 14.34 11.32 14 12 C13.49210937 11.52949219 12.98421875 11.05898437 12.4609375 10.57421875 C8.49014136 6.98265595 4.93590001 4.0977575 0 2 C0 1.34 0 0.68 0 0 Z " fill="#D28A3C" transform="translate(289,212)"/>
<path d="M0 0 C6.625 -0.25 6.625 -0.25 10 2 C9.34 2.66 8.68 3.32 8 4 C5.3984375 3.9765625 5.3984375 3.9765625 2.375 3.625 C1.37210938 3.51414063 0.36921875 3.40328125 -0.6640625 3.2890625 C-1.82035156 3.14597656 -1.82035156 3.14597656 -3 3 C-2.01 2.67 -1.02 2.34 0 2 C0 1.34 0 0.68 0 0 Z " fill="#F0922F" transform="translate(249,177)"/>
<path d="M0 0 C-0.33 0.66 -0.66 1.32 -1 2 C0.65 2 2.3 2 4 2 C4.33 3.65 4.66 5.3 5 7 C1.04 5.02 -2.92 3.04 -7 1 C-7 0.67 -7 0.34 -7 0 C-2.25 -1.125 -2.25 -1.125 0 0 Z " fill="#3A1805" transform="translate(295,122)"/>
<path d="M0 0 C2.31 0.66 4.62 1.32 7 2 C7 2.66 7 3.32 7 4 C9.97 4.33 12.94 4.66 16 5 C16 5.33 16 5.66 16 6 C9.75962747 6.4992298 5.98990804 6.24142184 1 2 C0.67 1.34 0.34 0.68 0 0 Z " fill="#3A1503" transform="translate(160,167)"/>
<path d="M0 0 C0.99 0 1.98 0 3 0 C3.66 0.99 4.32 1.98 5 3 C7.56282742 3.72965366 7.56282742 3.72965366 10 4 C10 4.66 10 5.32 10 6 C10.66 6.33 11.32 6.66 12 7 C12 7.66 12 8.32 12 9 C7.09198451 7.51272258 3.59508707 4.55364515 0 1 C0 0.67 0 0.34 0 0 Z " fill="#DB8D3B" transform="translate(96,265)"/>
<path d="M0 0 C-0.33 1.32 -0.66 2.64 -1 4 C-3.3431213 3.74438677 -5.67843403 3.40729228 -8 3 C-8.33 2.34 -8.66 1.68 -9 1 C-5.64919071 -1.10976881 -3.77897651 -1.0497157 0 0 Z " fill="#F69328" transform="translate(109,266)"/>
<path d="M0 0 C-0.33 2.31 -0.66 4.62 -1 7 C-2.98 6.01 -4.96 5.02 -7 4 C-4.95178546 1.75671741 -3.30858805 0 0 0 Z " fill="#F5932A" transform="translate(166,179)"/>
<path d="M0 0 C0.33 0.99 0.66 1.98 1 3 C0.01 4.485 0.01 4.485 -1 6 C-1.4603764 9.19806665 -1.4603764 9.19806665 -1.625 12.6875 C-1.69976562 13.86699219 -1.77453125 15.04648437 -1.8515625 16.26171875 C-1.92503906 17.61716797 -1.92503906 17.61716797 -2 19 C-2.33 19 -2.66 19 -3 19 C-3.0809313 16.39521117 -3.14045434 13.79293347 -3.1875 11.1875 C-3.22520508 10.08051758 -3.22520508 10.08051758 -3.26367188 8.95117188 C-3.33834499 3.45025238 -3.33834499 3.45025238 -1.48828125 0.98828125 C-0.99714844 0.66214844 -0.50601563 0.33601563 0 0 Z " fill="#C8822E" transform="translate(236,274)"/>
<path d="M0 0 C0.33 0.66 0.66 1.32 1 2 C0.50628906 2.32613281 0.01257813 2.65226563 -0.49609375 2.98828125 C-1.13675781 3.42527344 -1.77742188 3.86226562 -2.4375 4.3125 C-3.07558594 4.74175781 -3.71367188 5.17101562 -4.37109375 5.61328125 C-6.2885684 7.0034052 -6.2885684 7.0034052 -7 10 C-8.65 10.33 -10.3 10.66 -12 11 C-8.38748484 6.43951988 -5.01202555 2.98334854 0 0 Z " fill="#D58A40" transform="translate(107,213)"/>
<path d="M0 0 C3.3125 -0.1875 3.3125 -0.1875 7 0 C7.99 0.99 8.98 1.98 10 3 C6.7 3 3.4 3 0 3 C0 2.01 0 1.02 0 0 Z " fill="#F69331" transform="translate(113,184)"/>
<path d="M0 0 C3.72114571 2.31537955 6.61229661 4.28579473 9 8 C8.67 8.66 8.34 9.32 8 10 C7.5875 9.54625 7.175 9.0925 6.75 8.625 C5.08736887 6.89092237 5.08736887 6.89092237 2.875 6.125 C1 5 1 5 0.25 2.375 C0.1675 1.59125 0.085 0.8075 0 0 Z " fill="#D88434" transform="translate(142,127)"/>
<path d="M0 0 C2 4 2 4 1.3203125 6.140625 C0.92585937 6.83671875 0.53140625 7.5328125 0.125 8.25 C-0.26429688 8.95640625 -0.65359375 9.6628125 -1.0546875 10.390625 C-1.36664063 10.92171875 -1.67859375 11.4528125 -2 12 C-2.99 11.34 -3.98 10.68 -5 10 C-3.35 6.7 -1.7 3.4 0 0 Z " fill="#2A0F02" transform="translate(232,119)"/>
<path d="M0 0 C2.64 1.65 5.28 3.3 8 5 C7.34 5.66 6.68 6.32 6 7 C5.4225 6.690625 4.845 6.38125 4.25 6.0625 C2.15705816 5.07416636 0.25464725 4.4831387 -2 4 C-2 3.34 -2 2.68 -2 2 C-1.34 2 -0.68 2 0 2 C0 1.34 0 0.68 0 0 Z " fill="#1E0B05" transform="translate(176,313)"/>
<path d="M0 0 C0 0.66 0 1.32 0 2 C-0.66 2 -1.32 2 -2 2 C-2 2.99 -2 3.98 -2 5 C-4.64 5 -7.28 5 -10 5 C-3.63636364 0 -3.63636364 0 0 0 Z " fill="#DD8B33" transform="translate(186,258)"/>
<path d="M0 0 C2.61724095 2.36797991 4.32861729 4.89600354 6 8 C6 8.66 6 9.32 6 10 C3.13367003 8.94901234 2.16993357 8.33137046 0.75 5.5625 C0 3 0 3 0 0 Z " fill="#D88534" transform="translate(148,222)"/>
<path d="M0 0 C0 1.98 0 3.96 0 6 C-1.65 6.66 -3.3 7.32 -5 8 C-3.91891892 0 -3.91891892 0 0 0 Z " fill="#150C03" transform="translate(232,214)"/>
<path d="M0 0 C2.31 0.66 4.62 1.32 7 2 C2.16353702 5.22430866 -0.26939984 5.09242903 -6 5 C-6 4.34 -6 3.68 -6 3 C-3.03 3.495 -3.03 3.495 0 4 C0 2.68 0 1.36 0 0 Z " fill="#EB8D2A" transform="translate(137,179)"/>
<path d="M0 0 C4.97306516 0.49730652 8.63799813 1.55302334 13 4 C12.01 4.66 11.02 5.32 10 6 C9.46375 5.54625 8.9275 5.0925 8.375 4.625 C5.68301698 2.78311688 3.11479612 1.92028067 0 1 C0 0.67 0 0.34 0 0 Z " fill="#2A0B01" transform="translate(250,270)"/>
<path d="M0 0 C0.33 0 0.66 0 1 0 C1.13277344 0.71027344 1.26554688 1.42054688 1.40234375 2.15234375 C1.57894531 3.07144531 1.75554687 3.99054688 1.9375 4.9375 C2.11152344 5.85402344 2.28554687 6.77054688 2.46484375 7.71484375 C2.77714988 9.95289844 2.77714988 9.95289844 4 11 C4.04063832 12.66617115 4.042721 14.33388095 4 16 C0.9005971 12.09205721 -0.13464242 9.29032666 -0.0625 4.3125 C-0.05347656 3.50425781 -0.04445312 2.69601563 -0.03515625 1.86328125 C-0.02355469 1.24839844 -0.01195312 0.63351563 0 0 Z " fill="#331101" transform="translate(156,240)"/>
<path d="M0 0 C3.53586014 3.17320782 5.58578031 5.16743695 6 10 C5.34 10 4.68 10 4 10 C3.32845067 8.71086513 2.66291141 7.41859796 2 6.125 C1.62875 5.40570313 1.2575 4.68640625 0.875 3.9453125 C0 2 0 2 0 0 Z " fill="#3A1305" transform="translate(159,183)"/>
<path d="M0 0 C0.98120464 3.05263664 0.98120464 4.94736336 0 8 C-1.32 7.67 -2.64 7.34 -4 7 C-4 4 -4 4 -2 1.8125 C-1.34 1.214375 -0.68 0.61625 0 0 Z " fill="#190904" transform="translate(303,176)"/>
<path d="M0 0 C0.33 0.66 0.66 1.32 1 2 C1.66 2.33 2.32 2.66 3 3 C1.68 3 0.36 3 -1 3 C-1.66 4.98 -2.32 6.96 -3 9 C-3.99 9 -4.98 9 -6 9 C-4.68775452 5.06326356 -3.08089673 2.77280706 0 0 Z " fill="#D88836" transform="translate(254,129)"/>
<path d="M0 0 C2.95929119 2.75520215 5.03681826 5.46627288 7 9 C6.01 9.495 6.01 9.495 5 10 C5 9.34 5 8.68 5 8 C4.360625 7.79375 3.72125 7.5875 3.0625 7.375 C1 6 1 6 0.25 2.875 C0.1675 1.92625 0.085 0.9775 0 0 Z " fill="#311402" transform="translate(169,125)"/>
<path d="M0 0 C-2.96283313 2.38672669 -5.94270509 4.7353371 -9 7 C-9.33 6.34 -9.66 5.68 -10 5 C-7.07848876 0.61773314 -5.09753945 -0.27554267 0 0 Z " fill="#250D01" transform="translate(106,124)"/>
<path d="M0 0 C1.4540625 0.0309375 1.4540625 0.0309375 2.9375 0.0625 C-6.0625 6.0625 -6.0625 6.0625 -9.0625 6.0625 C-9.0625 5.0725 -9.0625 4.0825 -9.0625 3.0625 C-8.258125 2.753125 -7.45375 2.44375 -6.625 2.125 C-1.57765152 0.03219697 -1.57765152 0.03219697 0 0 Z " fill="#2C0D01" transform="translate(188.0625,75.9375)"/>
<path d="M0 0 C1.60495567 0.11442461 3.20898119 0.24194694 4.8125 0.375 C5.70582031 0.44460937 6.59914063 0.51421875 7.51953125 0.5859375 C10 1 10 1 13 3 C13 3.66 13 4.32 13 5 C11.39402675 4.54803755 9.79027492 4.08817673 8.1875 3.625 C6.84751953 3.24214844 6.84751953 3.24214844 5.48046875 2.8515625 C3 2 3 2 0 0 Z " fill="#491F06" transform="translate(283,210)"/>
<path d="M0 0 C2.92879371 0.62759865 5.36095629 1.58622659 8 3 C7.34 3.66 6.68 4.32 6 5 C4.02 4.34 2.04 3.68 0 3 C0 2.01 0 1.02 0 0 Z " fill="#F6972B" transform="translate(176,130)"/>
<path d="M0 0 C0.66 0.33 1.32 0.66 2 1 C1.01 1.33 0.02 1.66 -1 2 C-1.33 2.99 -1.66 3.98 -2 5 C-3.98 5.33 -5.96 5.66 -8 6 C-5.54080489 3.3651481 -3.42227589 1.25483449 0 0 Z " fill="#D38535" transform="translate(263,123)"/>
<path d="M0 0 C0.66 0.33 1.32 0.66 2 1 C1.04882866 2.1725131 0.08882991 3.33787015 -0.875 4.5 C-1.40867188 5.1496875 -1.94234375 5.799375 -2.4921875 6.46875 C-2.98976562 6.9740625 -3.48734375 7.479375 -4 8 C-4.66 8 -5.32 8 -6 8 C-5.67 6.68 -5.34 5.36 -5 4 C-4.01 4 -3.02 4 -2 4 C-1.34 2.68 -0.68 1.36 0 0 Z " fill="#D38A3A" transform="translate(226,307)"/>
<path d="M0 0 C1.22589844 0.01353516 1.22589844 0.01353516 2.4765625 0.02734375 C3.41628906 0.04474609 3.41628906 0.04474609 4.375 0.0625 C4.375 0.3925 4.375 0.7225 4.375 1.0625 C1.70833333 1.72916667 -0.95833333 2.39583333 -3.625 3.0625 C-4.37265625 3.24941406 -5.1203125 3.43632812 -5.890625 3.62890625 C-6.46296875 3.77199219 -7.0353125 3.91507813 -7.625 4.0625 C-7.295 3.0725 -6.965 2.0825 -6.625 1.0625 C-4.21954362 -0.14022819 -2.67503047 -0.03821472 0 0 Z " fill="#492307" transform="translate(249.625,179.9375)"/>
<path d="M0 0 C3.99500618 1.3697164 6.80009492 3.25722422 10 6 C9.01 6.33 8.02 6.66 7 7 C6.5875 6.54625 6.175 6.0925 5.75 5.625 C3.93591905 3.94049626 2.24714373 3.00734029 0 2 C0 1.34 0 0.68 0 0 Z " fill="#D08839" transform="translate(212,78)"/>
<path d="M0 0 C1 2 1 2 0.375 3.9375 C-1.3792518 6.5688777 -3.16320216 7.65252103 -6 9 C-6.66 8.67 -7.32 8.34 -8 8 C-6.50260417 6.79557292 -5.00520833 5.59114583 -3.5078125 4.38671875 C-1.74707893 2.87729455 -1.74707893 2.87729455 0 0 Z " fill="#2A0E01" transform="translate(227,308)"/>
<path d="M0 0 C1.65 0 3.3 0 5 0 C5.33 2.31 5.66 4.62 6 7 C1.125 2.25 1.125 2.25 0 0 Z " fill="#E18D35" transform="translate(170,305)"/>
<path d="M0 0 C2.64 0 5.28 0 8 0 C7.67 0.99 7.34 1.98 7 3 C4.69 2.34 2.38 1.68 0 1 C0 0.67 0 0.34 0 0 Z M5 3 C6.485 3.99 6.485 3.99 8 5 C6.68 5.33 5.36 5.66 4 6 C4.33 5.01 4.66 4.02 5 3 Z " fill="#F2962B" transform="translate(168,263)"/>
<path d="M0 0 C2.31 0 4.62 0 7 0 C7.33 1.32 7.66 2.64 8 4 C2.25 2.25 2.25 2.25 0 0 Z " fill="#D48A37" transform="translate(105,183)"/>
<path d="M0 0 C0.66 0 1.32 0 2 0 C2.33 1.65 2.66 3.3 3 5 C3.99 5 4.98 5 6 5 C5.67 6.32 5.34 7.64 5 9 C1.7457985 6.16569547 0.4793247 4.31392226 0 0 Z " fill="#EC8F34" transform="translate(94,170)"/>
<path d="M0 0 C0.99 0.66 1.98 1.32 3 2 C1.73581754 2.69965443 0.46334598 3.38434763 -0.8125 4.0625 C-1.52019531 4.44535156 -2.22789062 4.82820312 -2.95703125 5.22265625 C-5 6 -5 6 -8 5 C-5.4345406 2.4345406 -3.52313332 2.45953913 0 2 C0 1.34 0 0.68 0 0 Z " fill="#270E03" transform="translate(184,166)"/>
<path d="M0 0 C0.66 0 1.32 0 2 0 C2.625 2.875 2.625 2.875 3 6 C2.34 6.66 1.68 7.32 1 8 C0 7 0 7 -0.0625 3.4375 C-0.041875 2.303125 -0.02125 1.16875 0 0 Z " fill="#DA882B" transform="translate(307,141)"/>
<path d="M0 0 C-0.33 0.99 -0.66 1.98 -1 3 C-2.9375 3.8125 -2.9375 3.8125 -5 4 C-5.66 3.34 -6.32 2.68 -7 2 C-4 0 -4 0 0 0 Z " fill="#050408" transform="translate(144,274)"/>
<path d="M0 0 C1.65 0 3.3 0 5 0 C5 0.99 5 1.98 5 3 C1.7 3 -1.6 3 -5 3 C-5 2.67 -5 2.34 -5 2 C-3.35 1.67 -1.7 1.34 0 1 C0 0.67 0 0.34 0 0 Z " fill="#F49424" transform="translate(250,266)"/>
<path d="M0 0 C1.90318884 2.85478326 2.4619099 4.41941308 3.125 7.6875 C3.29257813 8.49574219 3.46015625 9.30398438 3.6328125 10.13671875 C3.75398438 10.75160156 3.87515625 11.36648438 4 12 C3.01 11.67 2.02 11.34 1 11 C0.67 7.37 0.34 3.74 0 0 Z " fill="#341605" transform="translate(88,248)"/>
<path d="M0 0 C1.95216435 3.90432869 2.50639991 6.72213252 3 11 C2.67 10.34 2.34 9.68 2 9 C1.34 9 0.68 9 0 9 C0 6.03 0 3.06 0 0 Z " fill="#CF8337" transform="translate(308,230)"/>
<path d="M0 0 C0.33 0.99 0.66 1.98 1 3 C-0.65 4.65 -2.3 6.3 -4 8 C-3.6875 5.125 -3.6875 5.125 -3 2 C-2.01 1.34 -1.02 0.68 0 0 Z " fill="#230D01" transform="translate(251,219)"/>
<path d="M0 0 C-0.66 0 -1.32 0 -2 0 C-2 0.99 -2 1.98 -2 3 C-3.65 3 -5.3 3 -7 3 C-6.67 2.01 -6.34 1.02 -6 0 C-3.50907189 -1.24546405 -2.58919267 -0.7767578 0 0 Z " fill="#D8882D" transform="translate(115,212)"/>
<path d="M0 0 C1 3 1 3 0.22265625 4.82421875 C-0.8515625 6.54947917 -1.92578125 8.27473958 -3 10 C-4.26339822 6.20980534 -3.49719015 4.62477616 -2 1 C-1.34 0.67 -0.68 0.34 0 0 Z " fill="#DE8F37" transform="translate(230,210)"/>
<path d="M0 0 C1.65 0.33 3.3 0.66 5 1 C3.25 3.0625 3.25 3.0625 1 5 C-1.25 4.75 -1.25 4.75 -3 4 C-2.01 4 -1.02 4 0 4 C0 2.68 0 1.36 0 0 Z " fill="#E3882D" transform="translate(295,178)"/>
<path d="M0 0 C0.91007813 0.00902344 1.82015625 0.01804687 2.7578125 0.02734375 C3.45648438 0.03894531 4.15515625 0.05054687 4.875 0.0625 C4.875 0.3925 4.875 0.7225 4.875 1.0625 C3.44166979 1.45313507 2.00307321 1.82448474 0.5625 2.1875 C-0.63826172 2.50074219 -0.63826172 2.50074219 -1.86328125 2.8203125 C-4.125 3.0625 -4.125 3.0625 -7.125 1.0625 C-4.60024538 -0.19987731 -2.81299534 -0.03606404 0 0 Z " fill="#F6932A" transform="translate(197.125,76.9375)"/>
<path d="M0 0 C0.93423645 3.01031744 1.04449911 3.86650268 0 7 C-1.32 7 -2.64 7 -4 7 C-2.92598892 4.08482708 -2.22189824 2.22189824 0 0 Z " fill="#2D1204" transform="translate(211,232)"/>
<path d="M0 0 C1.875 0.25 1.875 0.25 4 1 C5.25 3.0625 5.25 3.0625 6 5 C5.01 5.495 5.01 5.495 4 6 C2.62437146 4.71034824 1.29233607 3.37310707 0 2 C0 1.34 0 0.68 0 0 Z " fill="#06030D" transform="translate(182,231)"/>
<path d="M0 0 C1.42944945 2.35438733 2.08661261 3.48032433 1.625 6.25 C1.41875 6.8275 1.2125 7.405 1 8 C-0.98 4.535 -0.98 4.535 -3 1 C-2.01 0.67 -1.02 0.34 0 0 Z " fill="#2B0E03" transform="translate(307,222)"/>
<path d="M0 0 C2.97 0 5.94 0 9 0 C9.33 0.99 9.66 1.98 10 3 C6.7 2.34 3.4 1.68 0 1 C0 0.67 0 0.34 0 0 Z " fill="#441F05" transform="translate(204,165)"/>
<path d="M0 0 C0.33 0 0.66 0 1 0 C1 2.31 1 4.62 1 7 C0.01 7.33 -0.98 7.66 -2 8 C-1.125 2.25 -1.125 2.25 0 0 Z " fill="#D88A36" transform="translate(247,138)"/>
<path d="M0 0 C1.33597652 0.80814651 2.668725 1.62163181 4 2.4375 C5.11375 3.11619141 5.11375 3.11619141 6.25 3.80859375 C6.8275 4.20175781 7.405 4.59492188 8 5 C8 5.33 8 5.66 8 6 C6.35 6 4.7 6 3 6 C2.67 5.01 2.34 4.02 2 3 C1.34 3 0.68 3 0 3 C0 2.01 0 1.02 0 0 Z " fill="#290E02" transform="translate(176,134)"/>
</svg>
