<?xml version="1.0" encoding="UTF-8"?>
<svg version="1.1" xmlns="http://www.w3.org/2000/svg" width="300" height="367">
<path d="M0 0 C11.7792652 9.05179424 19.92880925 21.11894471 22 36 C22.16252475 38.33223016 22.3071231 40.66575201 22.4375 43 C22.98828771 51.67257265 24.70874187 59.62617943 31 66 C36.36358378 70.30615515 42.14153696 70.60986543 48.8359375 70.38671875 C53.469293 69.82041974 56.91490422 68.15333015 61 66 C77.56664697 58.43892816 91.6546539 57.06300234 109 63 C112.3097439 64.4441864 115.47475379 66.00348655 118.64453125 67.73046875 C124.82936458 71.06391955 132.78444362 71.21577174 139.4921875 69.28125 C146.3615761 66.06689458 149.53821863 60.92080265 152.1953125 54 C153.45775415 49.29342144 153.51774515 44.59209394 153.7421875 39.7421875 C154.75241282 25.07861387 161.25325707 12.91746671 172 3 C184.39545247 -6.58581658 197.54439688 -9.89763271 213 -9 C227.81487492 -6.72492247 237.46994162 0.29880393 247.75 10.8125 C257.68839988 24.89189983 260.2250657 40.00934696 257.34765625 56.80859375 C253.35800548 71.07202334 244.5561234 81.87096578 231.98828125 89.421875 C219.85558926 95.82920515 205.90550706 96.97223742 192.5078125 94.3046875 C187.22093175 92.63588429 182.36066406 90.2155785 177.375 87.8125 C170.13203497 84.40709639 164.06671443 82.87118067 156.25 85.125 C150.22367181 87.50577163 146.40955958 90.64202042 143.6875 96.5625 C141.5278341 101.82042077 140.89675471 106.23979305 140.6875 111.9375 C139.89320608 126.05770767 134.82364939 140.36413462 124.28515625 150.23046875 C121.1323302 152.67188789 117.78976344 154.78198206 114.4375 156.9375 C107.55712127 161.36496141 103.02470533 165.49042904 99.625 173.0625 C98.03417651 180.53937039 99.50827994 186.32018772 103 193 C103.98931841 194.01056869 104.98702401 195.0131466 106 196 C106 196.66 106 197.32 106 198 C106.53496094 198.26683594 107.06992188 198.53367187 107.62109375 198.80859375 C109.3861464 199.69256921 111.14879971 200.58133891 112.91015625 201.47265625 C113.95042969 201.99730469 114.99070313 202.52195312 116.0625 203.0625 C117.62677734 203.85333984 117.62677734 203.85333984 119.22265625 204.66015625 C125.58954575 207.73166553 132.39493463 208.06960976 139.1875 206 C144.67252234 203.62389721 148.29233633 199.1963961 151.06640625 194.00390625 C152.89944941 189.31946262 153.19424112 184.81224639 153.4375 179.8125 C154.28991947 163.74519711 159.92538771 151.06720081 171.625 140 C184.12552934 129.47323845 197.76994061 126.7807419 213.70605469 127.77246094 C225.81022066 128.97308702 237.82905313 136.1325691 246 145 C256.36804784 158.78165869 259.27479132 172.12551436 258 189 C255.36106137 203.62725985 247.30764832 214.86617744 235.625 223.8203125 C223.63131979 231.67143869 209.88614804 233.52596819 195.87890625 231.5625 C188.6617292 230.02896968 182.49040363 226.97122896 176.03125 223.5234375 C169.76543562 220.3743813 162.51944063 219.71756044 155.71484375 221.6484375 C149.87479718 224.28152208 145.67184438 228.34937106 143 234.18359375 C140.93489422 240.2299852 140.65403276 246.20341858 140.296875 252.54296875 C138.99854953 267.66162714 131.74534428 278.87141598 120.83984375 289.0078125 C108.63892836 299.23798112 94.39110046 301.22156874 79 300 C65.58187328 297.53343259 53.51420395 290.33229392 45.375 279.375 C39.30810768 270.34298238 36.13709727 261.17781378 35.625 250.375 C34.92864737 240.44937671 33.74870223 231.84860045 26 225 C20.10785385 220.79132418 14.08526102 220.26386899 7 221 C2.53291992 222.29033396 -1.56712725 224.32009579 -5.7578125 226.30859375 C-19.82920692 232.91313403 -33.66573138 234.18151475 -48.71875 229.31640625 C-62.70258149 223.70622624 -72.26164108 213.77900014 -78.625 200.39453125 C-83.59130102 188.13397561 -84.24531479 173.01683685 -79.26171875 160.6015625 C-71.8741109 145.36890979 -62.17650742 135.78352011 -46.19140625 129.7265625 C-32.88047448 125.31331239 -17.79442703 127.40437441 -5.3359375 133.25 C7.26896604 140.11830657 16.02378891 151.11930014 20.3125 164.6875 C21.65723367 169.73711214 22.26149959 174.47229114 22.5 179.6875 C22.92879624 188.4732613 24.23084737 195.87568866 30.875 202.0625 C37.13290046 206.87096028 43.24699988 207.91480827 51 207 C60.37739234 204.50691684 68.49764342 199.01771959 74 191 C77.3584715 184.10010524 77.61018674 178.17766635 75.34765625 170.90234375 C72.38035404 163.805432 66.37409724 160.32927736 60.25 156.1015625 C48.03602217 147.5178503 39.51700972 137.18365783 36.2890625 122.21484375 C35.89445267 119.19127924 35.73942477 116.16876129 35.5625 113.125 C35.00525402 104.29406794 33.59471032 95.44054826 27 89 C21.91449078 85.35000651 16.23844007 83.74962782 10 84 C2.93486494 85.22871914 -3.43196588 88.46919376 -9.82421875 91.59765625 C-21.91072189 96.93474681 -37.56738136 96.9752974 -49.97265625 92.45703125 C-64.83852629 85.30223186 -73.57422046 75.03869776 -80 60 C-84.28621497 47.7394316 -83.31195633 32.75545365 -78 21 C-70.94600747 7.33060516 -60.64760388 -1.77059932 -46.125 -6.8125 C-30.25272158 -11.79144665 -13.74364324 -9.23621119 0 0 Z " fill="#FF931D" transform="translate(82,77)"/>
<path d="M0 0 C9.49028752 7.44913921 16.3515165 19.71310501 18.07421875 31.6328125 C19.10633146 48.82341104 16.43632328 62.61754825 4.97265625 76.10546875 C-5.01490078 86.67533918 -17.33854688 92.46036692 -31.95239258 93.10522461 C-47.4655644 93.31544027 -60.3901159 87.58149657 -71.56640625 77.08203125 C-82.70072143 65.52372725 -86.38826351 52.41371346 -86.140625 36.7109375 C-85.5719954 21.43917099 -77.64668242 9.73867724 -66.765625 -0.375 C-46.93899328 -16.99914492 -20.05369449 -14.23690278 0 0 Z " fill="#FF931D" transform="translate(203.92578125,11.3671875)"/>
</svg>
